<svg xmlns="http://www.w3.org/2000/svg" xmlns:xlink="http://www.w3.org/1999/xlink" width="500" zoomAndPan="magnify" viewBox="0 0 375 374.999991" height="500" preserveAspectRatio="xMidYMid meet" version="1.0"><defs><clipPath id="1e090dae32"><path d="M 106 81 L 362.25 81 L 362.25 294 L 106 294 Z M 106 81 " clip-rule="nonzero"/></clipPath></defs><path fill="#000000" d="M 180.75 160.324219 C 179.8125 157.886719 177.503906 156.261719 174.878906 156.261719 C 172.257812 156.261719 169.945312 157.886719 169.007812 160.324219 L 150.269531 210.300781 C 149.085938 213.550781 150.707031 217.113281 153.957031 218.363281 C 157.203125 219.546875 160.765625 217.925781 162.011719 214.675781 L 165.199219 206.242188 L 184.621094 206.242188 L 187.808594 214.675781 C 188.746094 217.175781 191.117188 218.738281 193.679688 218.738281 C 194.429688 218.738281 195.179688 218.613281 195.863281 218.363281 C 199.113281 217.175781 200.738281 213.550781 199.488281 210.300781 Z M 169.882812 193.746094 L 174.941406 180.316406 L 180 193.746094 Z M 169.882812 193.746094 " fill-opacity="1" fill-rule="nonzero"/><path fill="#000000" d="M 212.351562 156.261719 C 208.917969 156.261719 206.109375 159.074219 206.109375 162.511719 L 206.109375 212.488281 C 206.109375 215.925781 208.917969 218.738281 212.351562 218.738281 C 215.789062 218.738281 218.597656 215.925781 218.597656 212.488281 L 218.597656 162.511719 C 218.597656 159.074219 215.789062 156.261719 212.351562 156.261719 Z M 212.351562 156.261719 " fill-opacity="1" fill-rule="nonzero"/><path fill="#000000" d="M 187.371094 293.703125 C 128.847656 293.703125 81.195312 246.039062 81.195312 187.5 C 81.195312 128.960938 128.847656 81.296875 187.371094 81.296875 C 190.804688 81.296875 193.617188 78.484375 193.617188 75.046875 L 193.617188 6.328125 C 193.617188 2.890625 190.804688 0.0820312 187.371094 0.0820312 L 154.457031 0.0820312 C 151.582031 0.0820312 149.085938 2.015625 148.398438 4.828125 L 139.464844 40.6875 C 131.847656 43.1875 124.476562 46.1875 117.480469 49.746094 L 85.816406 30.753906 C 83.378906 29.253906 80.195312 29.691406 78.195312 31.691406 L 31.664062 78.234375 C 29.667969 80.234375 29.230469 83.417969 30.730469 85.855469 L 49.714844 117.53125 C 46.15625 124.527344 43.09375 131.898438 40.660156 139.519531 L 4.808594 148.453125 C 2 149.140625 0.0625 151.640625 0.0625 154.515625 L 0.0625 220.359375 C 0.0625 223.234375 2 225.734375 4.808594 226.421875 L 40.660156 235.355469 C 43.15625 242.976562 46.15625 250.347656 49.714844 257.34375 L 30.730469 289.019531 C 29.230469 291.457031 29.667969 294.640625 31.664062 296.640625 L 78.195312 343.183594 C 80.195312 345.183594 83.378906 345.621094 85.816406 344.121094 L 117.480469 325.128906 C 124.476562 328.6875 131.847656 331.75 139.464844 334.1875 L 148.398438 370.046875 C 149.085938 372.859375 151.582031 374.792969 154.457031 374.792969 L 187.371094 374.792969 C 190.804688 374.792969 193.617188 371.984375 193.617188 368.546875 L 193.617188 299.828125 C 193.617188 296.390625 190.804688 293.578125 187.371094 293.578125 Z M 181.125 362.425781 L 159.328125 362.425781 L 150.707031 327.875 C 150.144531 325.753906 148.523438 324.066406 146.460938 323.378906 C 137.28125 320.628906 128.410156 317.007812 120.230469 312.570312 C 118.292969 311.507812 115.921875 311.570312 114.046875 312.695312 L 83.566406 331 L 43.90625 291.332031 L 62.207031 260.84375 C 63.332031 258.96875 63.394531 256.59375 62.332031 254.660156 C 57.898438 246.472656 54.273438 237.601562 51.527344 228.417969 C 50.902344 226.296875 49.214844 224.671875 47.03125 224.171875 L 12.492188 215.550781 L 12.492188 159.449219 L 47.03125 150.828125 C 49.152344 150.265625 50.839844 148.640625 51.527344 146.582031 C 54.273438 137.398438 57.898438 128.527344 62.332031 120.339844 C 63.394531 118.40625 63.332031 116.03125 62.207031 114.15625 L 43.90625 83.667969 L 83.566406 44 L 114.046875 62.304688 C 115.921875 63.429688 118.292969 63.492188 120.230469 62.429688 C 128.410156 57.992188 137.28125 54.371094 146.460938 51.621094 C 148.585938 50.996094 150.207031 49.308594 150.707031 47.121094 L 159.328125 12.574219 L 181.125 12.574219 L 181.125 68.988281 C 118.605469 72.238281 68.703125 124.152344 68.703125 187.5 C 68.703125 250.847656 118.605469 302.761719 181.125 306.011719 Z M 181.125 362.425781 " fill-opacity="1" fill-rule="nonzero"/><g clip-path="url(#1e090dae32)"><path fill="#000000" d="M 337.265625 162.511719 C 325.648438 162.511719 315.96875 170.507812 313.160156 181.253906 L 249.828125 181.253906 L 249.828125 156.261719 L 274.808594 156.261719 C 276.558594 156.261719 278.246094 155.515625 279.433594 154.203125 L 302.292969 129.148438 C 305.351562 130.460938 308.722656 131.273438 312.285156 131.273438 C 326.085938 131.273438 337.265625 120.089844 337.265625 106.285156 C 337.265625 92.476562 326.085938 81.296875 312.285156 81.296875 C 298.480469 81.296875 287.300781 92.476562 287.300781 106.285156 C 287.300781 111.96875 289.300781 117.15625 292.484375 121.339844 L 272.0625 143.769531 L 249.828125 143.769531 L 249.828125 131.273438 C 249.828125 127.839844 247.015625 125.027344 243.582031 125.027344 L 231.089844 125.027344 L 231.089844 112.53125 C 231.089844 109.097656 228.28125 106.285156 224.84375 106.285156 C 221.410156 106.285156 218.597656 109.097656 218.597656 112.53125 L 218.597656 125.027344 L 193.617188 125.027344 L 193.617188 112.53125 C 193.617188 109.097656 190.804688 106.285156 187.371094 106.285156 C 183.9375 106.285156 181.125 109.097656 181.125 112.53125 L 181.125 125.027344 L 156.140625 125.027344 L 156.140625 112.53125 C 156.140625 109.097656 153.332031 106.285156 149.898438 106.285156 C 146.460938 106.285156 143.652344 109.097656 143.652344 112.53125 L 143.652344 125.027344 L 131.160156 125.027344 C 127.722656 125.027344 124.914062 127.839844 124.914062 131.273438 L 124.914062 143.769531 L 112.421875 143.769531 C 108.988281 143.769531 106.175781 146.582031 106.175781 150.015625 C 106.175781 153.453125 108.988281 156.261719 112.421875 156.261719 L 124.914062 156.261719 L 124.914062 181.253906 L 112.421875 181.253906 C 108.988281 181.253906 106.175781 184.0625 106.175781 187.5 C 106.175781 190.9375 108.988281 193.746094 112.421875 193.746094 L 124.914062 193.746094 L 124.914062 218.738281 L 112.421875 218.738281 C 108.988281 218.738281 106.175781 221.546875 106.175781 224.984375 C 106.175781 228.417969 108.988281 231.230469 112.421875 231.230469 L 124.914062 231.230469 L 124.914062 243.726562 C 124.914062 247.160156 127.722656 249.972656 131.160156 249.972656 L 143.652344 249.972656 L 143.652344 262.46875 C 143.652344 265.902344 146.460938 268.714844 149.898438 268.714844 C 153.332031 268.714844 156.140625 265.902344 156.140625 262.46875 L 156.140625 249.972656 L 181.125 249.972656 L 181.125 262.46875 C 181.125 265.902344 183.9375 268.714844 187.371094 268.714844 C 190.804688 268.714844 193.617188 265.902344 193.617188 262.46875 L 193.617188 249.972656 L 218.597656 249.972656 L 218.597656 262.46875 C 218.597656 265.902344 221.410156 268.714844 224.84375 268.714844 C 228.28125 268.714844 231.089844 265.902344 231.089844 262.46875 L 231.089844 249.972656 L 243.582031 249.972656 C 247.015625 249.972656 249.828125 247.160156 249.828125 243.726562 L 249.828125 231.230469 L 272.0625 231.230469 L 292.484375 253.660156 C 289.300781 257.84375 287.300781 263.03125 287.300781 268.714844 C 287.300781 282.523438 298.480469 293.703125 312.285156 293.703125 C 326.085938 293.703125 337.265625 282.523438 337.265625 268.714844 C 337.265625 254.910156 326.085938 243.726562 312.285156 243.726562 C 308.722656 243.726562 305.351562 244.476562 302.292969 245.851562 L 279.433594 220.796875 C 278.246094 219.484375 276.558594 218.738281 274.808594 218.738281 L 249.828125 218.738281 L 249.828125 193.746094 L 313.160156 193.746094 C 315.96875 204.492188 325.648438 212.488281 337.265625 212.488281 C 351.070312 212.488281 362.25 201.304688 362.25 187.5 C 362.25 173.695312 351.070312 162.511719 337.265625 162.511719 Z M 312.285156 93.789062 C 319.15625 93.789062 324.777344 99.414062 324.777344 106.285156 C 324.777344 113.15625 319.15625 118.78125 312.285156 118.78125 C 305.414062 118.78125 299.792969 113.15625 299.792969 106.285156 C 299.792969 99.414062 305.414062 93.789062 312.285156 93.789062 Z M 324.777344 268.714844 C 324.777344 275.585938 319.15625 281.210938 312.285156 281.210938 C 305.414062 281.210938 299.792969 275.585938 299.792969 268.714844 C 299.792969 261.84375 305.414062 256.21875 312.285156 256.21875 C 319.15625 256.21875 324.777344 261.84375 324.777344 268.714844 Z M 237.335938 237.476562 L 137.40625 237.476562 L 137.40625 137.523438 L 237.335938 137.523438 Z M 337.265625 199.996094 C 330.398438 199.996094 324.777344 194.371094 324.777344 187.5 C 324.777344 180.628906 330.398438 175.003906 337.265625 175.003906 C 344.136719 175.003906 349.757812 180.628906 349.757812 187.5 C 349.757812 194.371094 344.136719 199.996094 337.265625 199.996094 Z M 337.265625 199.996094 " fill-opacity="1" fill-rule="nonzero"/></g></svg>