<svg xmlns="http://www.w3.org/2000/svg" xmlns:xlink="http://www.w3.org/1999/xlink" width="500" zoomAndPan="magnify" viewBox="0 0 375 374.999991" height="500" preserveAspectRatio="xMidYMid meet" version="1.0"><defs><clipPath id="c918b41e2d"><path d="M 0 28 L 252 28 L 252 346.703125 L 0 346.703125 Z M 0 28 " clip-rule="nonzero"/></clipPath></defs><path fill="#000000" d="M 84.003906 278.339844 L 95.484375 294.355469 C 92.550781 295.871094 89.402344 296.902344 86.085938 297.445312 C 84.5 297.703125 82.894531 297.84375 81.300781 297.851562 Z M 80.964844 302.933594 C 82.945312 302.933594 84.933594 302.765625 86.90625 302.449219 C 91.800781 301.65625 96.382812 299.921875 100.535156 297.308594 L 102.8125 295.882812 L 80.726562 265.058594 L 75.515625 302.625 L 78.210938 302.824219 C 79.121094 302.894531 80.042969 302.933594 80.964844 302.933594 " fill-opacity="1" fill-rule="nonzero"/><path fill="#000000" d="M 49.667969 258.949219 L 70.316406 266.585938 L 67.257812 292.328125 C 58.183594 288.917969 51.289062 279.660156 49.726562 268.40625 C 49.28125 265.238281 49.261719 262.070312 49.667969 258.949219 Z M 45.210938 254.976562 C 44.207031 259.613281 44.039062 264.367188 44.703125 269.109375 C 46.714844 283.53125 56.410156 295.179688 68.832031 298.101562 L 71.59375 298.746094 L 75.824219 263.21875 L 45.824219 252.125 L 45.210938 254.976562 " fill-opacity="1" fill-rule="nonzero"/><path fill="#000000" d="M 85.746094 254.609375 L 57.320312 245.597656 C 59.132812 241.964844 61.71875 238.734375 64.878906 236.148438 C 65.78125 235.417969 66.742188 234.722656 67.730469 234.097656 C 70.980469 232.070312 74.566406 230.710938 78.386719 230.085938 C 80.636719 229.722656 82.933594 229.621094 85.183594 229.800781 C 86.351562 229.890625 87.519531 230.046875 88.667969 230.277344 C 100.304688 232.625 109.398438 242.082031 111.308594 253.808594 C 111.945312 257.699219 111.777344 261.601562 110.824219 265.398438 C 110.539062 266.527344 110.179688 267.65625 109.765625 268.746094 L 109.753906 268.746094 C 108.289062 272.546875 106.011719 276.003906 103.121094 278.855469 Z M 114.488281 270.578125 C 114.984375 269.300781 115.402344 267.972656 115.746094 266.632812 C 116.867188 262.15625 117.066406 257.570312 116.3125 252.996094 C 114.074219 239.199219 103.355469 228.066406 89.667969 225.304688 C 88.324219 225.035156 86.945312 224.847656 85.570312 224.738281 C 82.90625 224.542969 80.222656 224.652344 77.566406 225.085938 C 73.070312 225.820312 68.859375 227.402344 65.039062 229.808594 C 63.867188 230.542969 62.738281 231.355469 61.671875 232.226562 C 57.132812 235.929688 53.609375 240.773438 51.5 246.242188 L 50.519531 248.757812 L 82.609375 258.9375 L 102.21875 286.292969 L 104.308594 284.589844 C 108.855469 280.898438 112.371094 276.042969 114.488281 270.578125 " fill-opacity="1" fill-rule="nonzero"/><g clip-path="url(#c918b41e2d)"><path fill="#000000" d="M 246.582031 325.425781 C 246.582031 334.390625 239.273438 341.6875 230.289062 341.6875 L 21.289062 341.6875 C 12.308594 341.6875 4.996094 334.390625 4.996094 325.425781 L 4.996094 49.59375 C 4.996094 40.609375 12.308594 33.308594 21.289062 33.308594 L 230.289062 33.308594 C 239.273438 33.308594 246.582031 40.609375 246.582031 49.59375 L 246.582031 147.121094 C 245.097656 147.625 243.621094 148.167969 242.164062 148.773438 C 238.113281 150.457031 234.203125 152.546875 230.546875 154.992188 C 229.328125 155.816406 228.140625 156.675781 226.960938 157.578125 L 226.960938 52.921875 L 24.617188 52.921875 L 24.617188 322.078125 L 226.960938 322.078125 L 226.960938 264.871094 C 228.140625 265.773438 229.339844 266.632812 230.558594 267.445312 C 234.210938 269.894531 238.125 271.992188 242.164062 273.667969 C 243.601562 274.261719 245.085938 274.816406 246.582031 275.320312 Z M 244.117188 268.980469 C 240.371094 267.4375 236.757812 265.496094 233.371094 263.226562 C 230.84375 261.542969 228.410156 259.632812 226.128906 257.570312 L 221.890625 253.730469 L 221.890625 317.007812 L 29.6875 317.007812 L 29.6875 57.992188 L 221.890625 57.992188 L 221.890625 168.710938 L 226.128906 164.867188 C 228.410156 162.808594 230.84375 160.90625 233.371094 159.210938 C 236.75 156.953125 240.363281 155.011719 244.117188 153.457031 C 245.988281 152.6875 247.921875 151.992188 249.851562 151.398438 L 251.652344 150.855469 L 251.652344 49.59375 C 251.652344 37.816406 242.066406 28.238281 230.289062 28.238281 L 21.289062 28.238281 C 9.515625 28.238281 -0.0742188 37.816406 -0.0742188 49.59375 L -0.0742188 325.425781 C -0.0742188 337.191406 9.515625 346.761719 21.289062 346.761719 L 230.289062 346.761719 C 242.066406 346.761719 251.652344 337.191406 251.652344 325.425781 L 251.652344 271.585938 L 249.851562 271.042969 C 247.898438 270.449219 245.96875 269.753906 244.117188 268.980469 " fill-opacity="1" fill-rule="nonzero"/></g><path fill="#000000" d="M 196.753906 91.824219 L 54.824219 91.824219 C 51.824219 91.824219 49.378906 89.378906 49.378906 86.367188 C 49.378906 83.367188 51.824219 80.917969 54.824219 80.917969 L 196.753906 80.917969 C 199.765625 80.917969 202.210938 83.367188 202.210938 86.367188 C 202.210938 89.378906 199.765625 91.824219 196.753906 91.824219 Z M 196.753906 75.847656 L 54.824219 75.847656 C 49.023438 75.847656 44.308594 80.574219 44.308594 86.367188 C 44.308594 92.171875 49.023438 96.894531 54.824219 96.894531 L 196.753906 96.894531 C 202.558594 96.894531 207.28125 92.171875 207.28125 86.367188 C 207.28125 80.574219 202.558594 75.847656 196.753906 75.847656 " fill-opacity="1" fill-rule="nonzero"/><path fill="#000000" d="M 196.753906 130.519531 L 54.824219 130.519531 C 51.824219 130.519531 49.378906 128.074219 49.378906 125.074219 C 49.378906 122.0625 51.824219 119.617188 54.824219 119.617188 L 196.753906 119.617188 C 199.765625 119.617188 202.210938 122.0625 202.210938 125.074219 C 202.210938 128.074219 199.765625 130.519531 196.753906 130.519531 Z M 196.753906 114.542969 L 54.824219 114.542969 C 49.023438 114.542969 44.308594 119.269531 44.308594 125.074219 C 44.308594 130.867188 49.023438 135.589844 54.824219 135.589844 L 196.753906 135.589844 C 202.558594 135.589844 207.28125 130.867188 207.28125 125.074219 C 207.28125 119.269531 202.558594 114.542969 196.753906 114.542969 " fill-opacity="1" fill-rule="nonzero"/><path fill="#000000" d="M 196.753906 169.214844 L 54.824219 169.214844 C 51.824219 169.214844 49.378906 166.769531 49.378906 163.769531 C 49.378906 160.757812 51.824219 158.3125 54.824219 158.3125 L 196.753906 158.3125 C 199.765625 158.3125 202.210938 160.757812 202.210938 163.769531 C 202.210938 166.769531 199.765625 169.214844 196.753906 169.214844 Z M 196.753906 153.242188 L 54.824219 153.242188 C 49.023438 153.242188 44.308594 157.964844 44.308594 163.769531 C 44.308594 169.574219 49.023438 174.289062 54.824219 174.289062 L 196.753906 174.289062 C 202.558594 174.289062 207.28125 169.574219 207.28125 163.769531 C 207.28125 157.964844 202.558594 153.242188 196.753906 153.242188 " fill-opacity="1" fill-rule="nonzero"/><path fill="#000000" d="M 148.222656 239.585938 L 148.222656 296.269531 L 137.320312 296.269531 L 137.320312 239.585938 C 137.320312 236.585938 139.765625 234.140625 142.777344 234.140625 C 145.777344 234.140625 148.222656 236.585938 148.222656 239.585938 Z M 132.246094 239.585938 L 132.246094 301.339844 L 153.292969 301.339844 L 153.292969 239.585938 C 153.292969 233.78125 148.582031 229.066406 142.777344 229.066406 C 136.972656 229.066406 132.246094 233.78125 132.246094 239.585938 " fill-opacity="1" fill-rule="nonzero"/><path fill="#000000" d="M 175.210938 264.078125 L 175.210938 296.269531 L 164.308594 296.269531 L 164.308594 264.078125 C 164.308594 261.070312 166.753906 258.621094 169.765625 258.621094 C 172.765625 258.621094 175.210938 261.070312 175.210938 264.078125 Z M 159.238281 264.078125 L 159.238281 301.339844 L 180.285156 301.339844 L 180.285156 264.078125 C 180.285156 258.277344 175.570312 253.550781 169.765625 253.550781 C 163.960938 253.550781 159.238281 258.277344 159.238281 264.078125 " fill-opacity="1" fill-rule="nonzero"/><path fill="#000000" d="M 202.210938 296.269531 L 191.308594 296.269531 L 191.308594 283.222656 C 191.308594 280.222656 193.753906 277.777344 196.753906 277.777344 C 199.765625 277.777344 202.210938 280.222656 202.210938 283.222656 Z M 196.753906 272.707031 C 190.949219 272.707031 186.234375 277.429688 186.234375 283.222656 L 186.234375 301.339844 L 207.28125 301.339844 L 207.28125 283.222656 C 207.28125 277.429688 202.558594 272.707031 196.753906 272.707031 " fill-opacity="1" fill-rule="nonzero"/><path fill="#000000" d="M 365.195312 305.28125 C 363.1875 307.371094 360.472656 308.550781 357.570312 308.609375 C 354.660156 308.609375 351.90625 307.589844 349.816406 305.578125 L 314.871094 272.011719 C 313.011719 270.230469 312.199219 267.644531 312.683594 265.097656 L 312.941406 263.742188 L 298.175781 249.558594 C 298.9375 248.90625 299.640625 248.164062 300.382812 247.46875 C 301.066406 246.855469 301.769531 246.269531 302.421875 245.617188 C 303.878906 244.152344 305.195312 242.597656 306.445312 240.992188 C 306.574219 240.835938 306.710938 240.695312 306.839844 240.535156 L 321.609375 254.730469 L 322.945312 254.414062 C 325.46875 253.828125 328.085938 254.53125 329.9375 256.3125 L 364.890625 289.878906 C 369.21875 294.039062 369.347656 300.941406 365.195312 305.28125 Z M 237.214844 242.03125 C 228.972656 233.792969 224.4375 222.847656 224.4375 211.21875 C 224.4375 199.59375 228.972656 188.660156 237.214844 180.40625 C 245.464844 172.167969 256.398438 167.632812 268.027344 167.632812 C 279.652344 167.632812 290.597656 172.167969 298.839844 180.40625 C 307.078125 188.660156 311.613281 199.59375 311.613281 211.21875 C 311.613281 220.957031 308.394531 230.1875 302.523438 237.785156 C 301.421875 239.128906 300.285156 240.46875 299.054688 241.734375 C 298.601562 242.210938 298.125 242.636719 297.660156 243.101562 C 289.566406 250.640625 279.117188 254.808594 268.027344 254.808594 C 256.398438 254.808594 245.464844 250.273438 237.214844 242.03125 Z M 368.394531 286.226562 L 333.453125 252.660156 C 330.699219 250.015625 326.957031 248.777344 323.191406 249.222656 L 309.691406 236.25 C 314.21875 228.761719 316.683594 220.183594 316.683594 211.21875 C 316.683594 198.234375 311.625 186.023438 302.421875 176.824219 C 293.222656 167.621094 281.011719 162.558594 268.027344 162.558594 C 255.042969 162.558594 242.828125 167.621094 233.628906 176.824219 C 224.425781 186.035156 219.367188 198.246094 219.367188 211.21875 C 219.367188 224.203125 224.425781 236.417969 233.628906 245.617188 C 242.828125 254.820312 255.050781 259.878906 268.027344 259.878906 C 277.296875 259.878906 286.160156 257.253906 293.835938 252.421875 L 307.515625 265.566406 C 307.21875 269.328125 308.605469 273.023438 311.355469 275.667969 L 346.300781 309.234375 C 349.289062 312.113281 353.203125 313.691406 357.351562 313.691406 C 357.453125 313.691406 357.558594 313.679688 357.667969 313.679688 C 361.929688 313.601562 365.898438 311.859375 368.851562 308.789062 C 374.941406 302.449219 374.746094 292.328125 368.394531 286.226562 " fill-opacity="1" fill-rule="nonzero"/></svg>