<svg xmlns="http://www.w3.org/2000/svg" xmlns:xlink="http://www.w3.org/1999/xlink" width="500" zoomAndPan="magnify" viewBox="0 0 375 374.999991" height="500" preserveAspectRatio="xMidYMid meet" version="1.0"><path fill="#000000" d="M 363.472656 160.578125 C 363.382812 161.628906 363.019531 162.667969 362.652344 163.589844 C 362.039062 165.09375 361.21875 166.5 360.429688 167.902344 C 358.765625 170.8125 356.660156 173.457031 354.160156 175.679688 C 349.101562 180.179688 343.222656 184.261719 337.464844 187.8125 C 334.746094 189.480469 331.675781 190.796875 328.75 192.066406 L 313.328125 199.785156 C 307.625 202.636719 300.726562 201.511719 296.207031 196.980469 C 295.859375 196.628906 295.492188 196.277344 295.125 195.925781 C 292.976562 193.9375 290.828125 192.199219 288.3125 190.664062 C 279.164062 185.0625 268.839844 181.320312 258.667969 178.0625 C 251.738281 175.839844 244.703125 173.894531 237.644531 172.140625 C 230.027344 170.242188 221.78125 169.480469 214.546875 166.367188 C 207.601562 163.382812 203.15625 157.390625 197.878906 152.289062 C 195.292969 149.789062 192.558594 147.433594 189.679688 145.269531 C 189.179688 144.90625 189.445312 144.117188 190.058594 144.117188 C 201.433594 144.101562 261.765625 145.5625 337.828125 176.292969 C 338.589844 176.601562 339.363281 176.890625 340.152344 177.15625 C 340.738281 177.359375 341.558594 177.695312 342.300781 178.195312 C 344.027344 179.347656 346.277344 179.421875 347.988281 178.222656 C 350.664062 176.335938 353.179688 174.1875 355.371094 171.761719 C 357.609375 169.320312 359.523438 166.570312 360.867188 163.546875 C 361.527344 162.054688 361.996094 160.460938 362.34375 158.882812 C 362.390625 158.71875 362.449219 158.546875 362.566406 158.429688 C 362.683594 158.3125 362.871094 158.238281 363.019531 158.3125 C 363.164062 158.382812 363.222656 158.558594 363.265625 158.707031 C 363.441406 159.320312 363.515625 159.949219 363.472656 160.578125 Z M 333.941406 195.121094 C 325.667969 200.957031 308.066406 209.230469 302.730469 211.6875 C 302.042969 212.007812 301.207031 211.890625 300.695312 211.335938 C 299.847656 210.398438 300.230469 209.039062 301.296875 208.628906 C 307.40625 206.261719 324.554688 197.929688 333.105469 193.734375 C 334.011719 193.296875 334.757812 194.550781 333.941406 195.121094 Z M 301.457031 263.042969 C 300.492188 263.628906 298.914062 263.949219 297.757812 261.113281 C 296.207031 257.328125 292.714844 227.839844 290.507812 218.292969 C 290.214844 217.007812 289.628906 215.824219 288.882812 214.726562 C 288.253906 213.804688 287.90625 212.109375 291.515625 210.269531 C 291.824219 210.105469 292.171875 210.445312 291.984375 210.75 C 291.324219 211.90625 290.945312 213.628906 294.394531 213.851562 C 294.820312 213.878906 295.140625 214.246094 295.113281 214.667969 C 294.777344 219.214844 293.605469 242.269531 301.953125 261.433594 C 302.21875 262.035156 301.996094 262.707031 301.457031 263.042969 Z M 182.53125 152.683594 C 181.402344 154.1875 180.042969 155.167969 179.3125 152.640625 C 179.066406 151.820312 179.019531 150.941406 179.125 150.09375 C 180.058594 141.910156 187.324219 87.628906 218.523438 60.800781 C 218.929688 60.449219 219.472656 61.019531 219.121094 61.414062 C 209.414062 71.898438 189.488281 98.871094 184.574219 147.332031 C 184.371094 149.277344 183.683594 151.132812 182.53125 152.683594 Z M 177.222656 153.382812 C 173.683594 150.988281 154.972656 139.1875 136.714844 143.96875 C 136.390625 144.058594 136.085938 143.824219 136.085938 143.503906 C 136.085938 142.976562 136.433594 142.507812 136.945312 142.363281 C 140.894531 141.292969 157.835938 137.84375 177.105469 151.6875 C 177.558594 152.011719 177.808594 152.523438 177.808594 153.0625 C 177.808594 153.371094 177.472656 153.558594 177.222656 153.382812 Z M 133.773438 135.972656 C 133.335938 136.179688 132.898438 136.398438 132.472656 136.644531 C 130.75 137.625 127.0625 139.511719 124.167969 139.597656 C 122.226562 139.671875 121.128906 137.421875 122.386719 135.945312 C 123.980469 134.085938 127.679688 131.894531 136.246094 131.515625 C 136.933594 131.484375 137.355469 132.273438 136.933594 132.828125 C 136.011719 134 134.679688 135.5625 133.773438 135.972656 Z M 91.203125 130.550781 C 91.027344 131.308594 90.355469 131.835938 89.582031 131.820312 C 88.105469 131.808594 85.605469 132.011719 82.519531 133.152344 C 81.816406 133.414062 81.175781 132.65625 81.554688 132.011719 C 84.464844 127.144531 95.414062 115.34375 139.972656 104.324219 C 141.011719 104.058594 141.464844 104.863281 140.425781 105.140625 C 127.3125 108.621094 93.9375 118.589844 91.203125 130.550781 Z M 245.273438 39.765625 C 250.726562 35.277344 258.886719 36.402344 262.863281 42.25 C 276.632812 62.539062 279.175781 80.625 277.757812 94.425781 C 276.78125 104.03125 267.789062 110.710938 258.316406 108.898438 C 243.886719 106.136719 228.464844 103.648438 214.617188 102.347656 C 206.199219 101.558594 201.097656 92.570312 204.808594 84.964844 C 213.128906 67.921875 233.15625 49.765625 245.273438 39.765625 Z M 247.585938 32.03125 C 247.863281 31.796875 248.183594 31.59375 248.535156 31.359375 C 248.886719 31.125 249.265625 30.875 249.675781 30.597656 C 250.085938 30.320312 250.550781 30.085938 251.019531 29.824219 C 251.269531 29.675781 251.515625 29.546875 251.765625 29.414062 C 252.015625 29.269531 252.277344 29.121094 252.554688 29.003906 C 253.109375 28.757812 253.679688 28.492188 254.265625 28.214844 C 254.878906 27.980469 255.507812 27.761719 256.167969 27.511719 C 256.824219 27.265625 257.511719 27.105469 258.214844 26.882812 C 258.386719 26.839844 258.5625 26.78125 258.753906 26.738281 C 258.929688 26.695312 259.105469 26.664062 259.292969 26.621094 C 259.660156 26.546875 260.027344 26.460938 260.40625 26.386719 C 260.769531 26.300781 261.152344 26.257812 261.53125 26.199219 C 261.910156 26.140625 262.304688 26.082031 262.6875 26.023438 C 263.460938 25.917969 264.265625 25.875 265.054688 25.832031 C 265.859375 25.816406 266.664062 25.789062 267.46875 25.816406 C 268.285156 25.847656 269.089844 25.863281 269.894531 25.949219 L 271.105469 26.082031 L 272.304688 26.269531 C 273.109375 26.371094 273.886719 26.5625 274.675781 26.722656 C 276.222656 27.074219 277.730469 27.511719 279.164062 28.011719 C 280.59375 28.492188 281.941406 29.078125 283.199219 29.648438 C 284.453125 30.234375 285.609375 30.816406 286.648438 31.429688 C 287.171875 31.722656 287.671875 32.03125 288.136719 32.308594 C 288.589844 32.617188 289.03125 32.878906 289.441406 33.15625 C 290.257812 33.695312 290.929688 34.207031 291.488281 34.632812 C 292.042969 35.058594 292.464844 35.421875 292.742188 35.65625 C 293.035156 35.90625 293.183594 36.035156 293.183594 36.035156 C 293.183594 36.035156 293.007812 35.917969 292.699219 35.730469 C 292.378906 35.523438 291.910156 35.246094 291.3125 34.894531 C 290.710938 34.546875 289.980469 34.136719 289.132812 33.683594 C 288.269531 33.230469 287.304688 32.746094 286.238281 32.234375 C 285.15625 31.722656 283.988281 31.242188 282.730469 30.730469 C 281.472656 30.246094 280.128906 29.765625 278.722656 29.339844 C 278.023438 29.121094 277.304688 28.929688 276.574219 28.742188 C 276.210938 28.640625 275.828125 28.566406 275.464844 28.476562 C 275.097656 28.390625 274.71875 28.289062 274.351562 28.214844 C 273.59375 28.082031 272.832031 27.90625 272.058594 27.820312 L 270.917969 27.644531 L 269.746094 27.542969 C 268.972656 27.441406 268.199219 27.425781 267.421875 27.382812 C 266.648438 27.339844 264.351562 27.410156 263.972656 27.441406 C 263.59375 27.453125 263.210938 27.453125 262.847656 27.5 C 262.46875 27.542969 262.101562 27.585938 261.734375 27.628906 C 261.355469 27.660156 257.816406 28.304688 256.515625 28.652344 C 255.875 28.84375 255.246094 29.035156 254.644531 29.222656 C 254.046875 29.429688 253.476562 29.648438 252.921875 29.851562 C 252.367188 30.042969 251.867188 30.304688 251.371094 30.511719 C 250.875 30.730469 250.390625 30.90625 249.96875 31.140625 C 249.542969 31.359375 249.148438 31.5625 248.769531 31.753906 C 248.402344 31.941406 248.050781 32.105469 247.761719 32.292969 C 246.5625 32.996094 245.859375 33.375 245.859375 33.375 C 245.859375 33.375 246.472656 32.878906 247.585938 32.03125 Z M 210.964844 346.195312 L 210.847656 346.285156 C 207.164062 349.136719 201.300781 350.570312 193.449219 350.570312 C 176.710938 350.570312 157.675781 343.871094 157.488281 343.800781 L 102.125 323.667969 L 48.542969 300.964844 C 23.398438 287.5 17.214844 273.117188 17.011719 272.617188 C 16.148438 270.308594 15.257812 268.101562 14.378906 265.96875 C 12.289062 260.792969 10.316406 255.910156 9.21875 250.542969 C 7.667969 243.058594 7.15625 235.253906 6.761719 227.882812 C 6.03125 214.039062 5.769531 195.957031 10.433594 178.894531 C 12.945312 169.671875 18.867188 161.730469 25.871094 158.164062 C 29.335938 156.410156 33.488281 155.535156 38.222656 155.535156 C 39.625 155.535156 41.074219 155.605469 42.535156 155.765625 C 48.792969 156.425781 55.167969 158.382812 61.335938 160.269531 C 64.273438 161.175781 71.261719 163.3125 71.261719 163.3125 C 90.195312 169.128906 109.769531 175.136719 129.578125 180.824219 L 146.726562 185.75 C 199.457031 200.152344 211.375 213.25 212.398438 214.476562 L 212.746094 215.136719 L 213.113281 215.355469 C 233.171875 236.144531 232.191406 267.546875 232.175781 267.867188 C 230.742188 307.953125 227.847656 318.289062 227.511719 319.386719 L 227.25 319.96875 L 227.234375 320.378906 C 224.003906 336.941406 211.210938 346.023438 211.082031 346.125 Z M 374.363281 189.550781 C 373.703125 180.519531 371.773438 171.585938 368.734375 163.0625 C 367.679688 160.09375 366.484375 157.1875 365.167969 154.320312 C 365.167969 154.320312 357.519531 137.566406 332.757812 127.113281 C 323.195312 123.078125 316.910156 113.855469 316.75 103.476562 C 316.265625 70.480469 303.765625 47.730469 303.765625 47.730469 C 284.46875 12.632812 246.414062 12.382812 226.988281 14.882812 C 218.859375 15.933594 211.09375 18.917969 204.398438 23.652344 C 172.441406 46.226562 155.292969 86.78125 149.605469 102.453125 C 126.625 105.214844 100.472656 112.070312 83.351562 128.050781 C 78.164062 132.886719 71.949219 136.515625 65.179688 138.632812 L 60.238281 140.183594 C 59.4375 140.433594 59.597656 141.617188 60.445312 141.644531 C 69.144531 142.085938 77.609375 144.378906 85.882812 146.980469 C 94.054688 149.539062 102.210938 152.097656 110.441406 154.511719 C 123.585938 158.371094 136.726562 162.214844 149.871094 166.074219 C 156.15625 167.917969 162.429688 169.789062 168.730469 171.601562 L 197.835938 179.976562 C 197.835938 179.976562 238.433594 190.925781 251.53125 215.296875 C 252.191406 216.496094 252.863281 217.695312 253.59375 218.847656 C 256.648438 223.703125 265.273438 240.265625 263.183594 270.292969 C 263.125 271.054688 263.082031 271.816406 263.066406 272.589844 C 262.847656 279.269531 261.195312 316.621094 250.011719 329.253906 C 249.734375 329.546875 249.472656 329.851562 249.207031 330.160156 C 247.613281 332.089844 240.304688 340.453125 230.144531 344.398438 C 229.5 344.664062 228.988281 343.800781 229.542969 343.359375 C 233.695312 340 237.335938 335.976562 240.203125 331.460938 C 246.882812 320.90625 249.324219 308.261719 250.597656 295.847656 C 252.074219 281.683594 252.191406 267.386719 250.992188 253.203125 C 249.953125 241.160156 247.394531 229.140625 241.445312 218.484375 C 235.949219 208.617188 227.351562 200.78125 217.980469 194.640625 C 216.285156 193.527344 214.558594 192.476562 212.804688 191.480469 C 199.179688 183.761719 183.742188 179.816406 168.773438 175.519531 C 157.53125 172.289062 146.304688 169.027344 135.105469 165.648438 C 119.214844 160.839844 103.308594 156.046875 87.417969 151.234375 C 72.769531 146.804688 57.476562 142.332031 42.375 144.890625 C 42.082031 144.933594 41.804688 145.09375 41.660156 145.34375 C 41.21875 146.117188 42.433594 146.835938 43.355469 146.953125 C 49.507812 147.769531 55.636719 148.765625 61.730469 149.917969 C 77.152344 152.859375 92.371094 156.90625 107.226562 161.996094 C 119.726562 166.21875 131.960938 171.117188 144.519531 175.152344 C 159.621094 180.019531 175.042969 183.910156 189.738281 189.976562 C 199.679688 194.070312 209.457031 198.851562 217.628906 205.941406 C 228.332031 215.253906 235.699219 227.679688 239.414062 241.332031 C 243.625 256.832031 243.667969 273.144531 242.773438 289.183594 C 242.191406 299.589844 241.210938 310.101562 237.996094 320.027344 C 235.304688 328.375 231.445312 330.027344 233.097656 321.519531 C 233.097656 321.519531 236.5625 312.75 238.15625 268.101562 C 238.15625 268.101562 239.484375 234.066406 217.425781 211.203125 C 217.425781 211.203125 208.113281 196.320312 148.304688 179.976562 C 142.617188 178.339844 136.917969 176.71875 131.230469 175.078125 C 111.757812 169.480469 92.386719 163.546875 73.015625 157.59375 C 69.714844 156.585938 66.394531 155.5625 63.089844 154.554688 C 56.554688 152.550781 49.960938 150.535156 43.164062 149.816406 C 36.367188 149.101562 29.261719 149.746094 23.164062 152.84375 C 13.839844 157.582031 7.363281 167.449219 4.65625 177.332031 C 0.15625 193.820312 -0.109375 211.234375 0.796875 228.207031 C 1.222656 236.113281 1.761719 243.980469 3.355469 251.757812 C 5.050781 260.015625 8.53125 266.960938 11.410156 274.738281 C 11.410156 274.738281 17.523438 291.230469 45.972656 306.375 L 99.929688 329.222656 L 155.484375 349.429688 C 155.484375 349.429688 193.054688 362.832031 211.664062 352.847656 C 212.28125 352.511719 212.9375 352.25 213.59375 352.03125 C 216.402344 351.109375 218.976562 349.675781 221.707031 348.609375 C 225.171875 347.265625 228.769531 346.839844 232.308594 345.832031 C 235.480469 344.925781 238.566406 343.652344 241.5625 342.25 C 251.003906 338.082031 260.917969 334.414062 270.054688 329.648438 C 275.609375 326.753906 280.785156 323.144531 285.417969 318.933594 C 299.03125 306.550781 308.722656 289.09375 310.914062 270.777344 C 311.0625 269.546875 311.207031 268.304688 311.339844 267.0625 C 311.675781 263.804688 313.808594 260.996094 316.867188 259.796875 C 321.953125 257.796875 326.96875 255.601562 331.894531 253.203125 C 338.3125 250.074219 344.582031 246.597656 350.503906 242.589844 C 356.292969 238.660156 361.878906 234.171875 366.25 228.644531 C 370.824219 222.855469 372.84375 215.882812 373.820312 208.675781 C 374.683594 202.34375 374.832031 195.910156 374.363281 189.550781 " fill-opacity="1" fill-rule="nonzero"/></svg>