<svg xmlns="http://www.w3.org/2000/svg" xmlns:xlink="http://www.w3.org/1999/xlink" width="500" zoomAndPan="magnify" viewBox="0 0 375 374.999991" height="500" preserveAspectRatio="xMidYMid meet" version="1.0"><path fill="#000000" d="M 187.5 182.523438 C 208.300781 182.523438 225.21875 165.605469 225.21875 144.804688 C 225.21875 124.003906 208.300781 107.085938 187.5 107.085938 C 166.699219 107.085938 149.78125 124.003906 149.78125 144.804688 C 149.78125 165.605469 166.699219 182.523438 187.5 182.523438 Z M 187.5 116.421875 C 203.148438 116.421875 215.882812 129.152344 215.882812 144.804688 C 215.882812 160.453125 203.148438 173.1875 187.5 173.1875 C 171.851562 173.1875 159.117188 160.453125 159.117188 144.804688 C 159.117188 129.152344 171.851562 116.421875 187.5 116.421875 Z M 372.9375 22.300781 C 372.628906 22.089844 372.300781 21.917969 371.964844 21.789062 L 371.941406 21.78125 C 371.933594 21.78125 371.933594 21.78125 371.925781 21.773438 L 316.085938 0.382812 C 315.011719 -0.03125 313.824219 -0.03125 312.75 0.382812 L 256.90625 21.773438 C 256.898438 21.773438 256.898438 21.773438 256.890625 21.78125 L 256.867188 21.789062 C 256.527344 21.917969 256.199219 22.089844 255.894531 22.300781 C 254.628906 23.171875 253.875 24.609375 253.875 26.144531 L 253.875 91.273438 C 253.875 93.210938 255.0625 94.9375 256.867188 95.628906 L 309.746094 115.882812 L 309.746094 275.117188 L 273.421875 275.117188 L 273.421875 240.433594 C 273.421875 232.226562 266.746094 225.550781 258.539062 225.550781 L 245.566406 225.550781 C 238.589844 202.691406 216.714844 188.644531 187.5 188.644531 C 158.285156 188.644531 136.410156 202.683594 129.433594 225.550781 L 116.460938 225.550781 C 108.253906 225.550781 101.578125 232.226562 101.578125 240.433594 L 101.578125 275.132812 L 65.253906 275.132812 L 65.253906 115.890625 L 118.132812 95.636719 C 119.9375 94.945312 121.125 93.210938 121.125 91.28125 L 121.125 26.152344 C 121.125 24.609375 120.371094 23.179688 119.105469 22.308594 C 118.792969 22.097656 118.464844 21.925781 118.132812 21.796875 L 118.109375 21.789062 C 118.101562 21.789062 118.101562 21.789062 118.09375 21.78125 L 62.25 0.390625 C 61.175781 -0.0234375 59.988281 -0.0234375 58.914062 0.390625 L 3.074219 21.773438 C 3.066406 21.773438 3.066406 21.773438 3.058594 21.78125 L 3.035156 21.789062 C 2.691406 21.917969 2.363281 22.089844 2.0625 22.300781 C 0.792969 23.171875 0.0390625 24.609375 0.0390625 26.144531 L 0.0390625 91.273438 C 0.0390625 93.210938 1.230469 94.9375 3.035156 95.628906 L 55.910156 115.882812 L 55.910156 279.785156 C 55.910156 282.359375 58.003906 284.449219 60.578125 284.449219 L 101.570312 284.449219 L 101.570312 334.644531 L 93.101562 334.644531 C 90.527344 334.644531 88.433594 336.738281 88.433594 339.3125 L 88.433594 354.816406 C 88.433594 365.9375 97.480469 374.984375 108.601562 374.984375 L 266.390625 374.984375 C 277.511719 374.984375 286.558594 365.9375 286.558594 354.816406 L 286.558594 339.3125 C 286.558594 336.738281 284.464844 334.644531 281.890625 334.644531 L 273.414062 334.644531 L 273.414062 284.449219 L 314.40625 284.449219 C 316.980469 284.449219 319.074219 282.359375 319.074219 279.785156 L 319.074219 115.890625 L 371.949219 95.636719 C 373.753906 94.945312 374.945312 93.210938 374.945312 91.28125 L 374.945312 26.152344 C 374.960938 24.609375 374.207031 23.171875 372.9375 22.300781 Z M 111.792969 88.066406 L 65.253906 105.894531 L 65.253906 50.761719 L 111.792969 32.933594 Z M 60.578125 9.738281 L 103.40625 26.144531 L 60.578125 42.554688 L 17.75 26.152344 Z M 9.375 32.933594 L 55.910156 50.761719 L 55.910156 105.894531 L 9.375 88.066406 Z M 187.5 197.976562 C 211.519531 197.976562 229.089844 208.167969 235.71875 225.550781 L 139.28125 225.550781 C 145.910156 208.167969 163.480469 197.976562 187.5 197.976562 Z M 277.230469 354.832031 C 277.230469 360.804688 272.371094 365.664062 266.398438 365.664062 L 108.609375 365.664062 C 102.636719 365.664062 97.773438 360.804688 97.773438 354.832031 L 97.773438 343.996094 L 277.230469 343.996094 Z M 110.914062 334.652344 L 110.914062 240.433594 C 110.914062 237.375 113.402344 234.886719 116.460938 234.886719 L 258.539062 234.886719 C 261.597656 234.886719 264.085938 237.375 264.085938 240.433594 L 264.085938 334.660156 L 110.914062 334.660156 Z M 314.421875 9.738281 L 357.25 26.144531 L 314.421875 42.546875 L 271.585938 26.152344 Z M 263.207031 32.933594 L 309.746094 50.761719 L 309.746094 105.894531 L 263.207031 88.066406 Z M 365.625 88.066406 L 319.089844 105.894531 L 319.089844 50.761719 L 365.625 32.933594 Z M 171.460938 265.664062 L 152.355469 284.769531 L 171.460938 303.875 C 173.28125 305.695312 173.28125 308.648438 171.460938 310.46875 C 170.550781 311.378906 169.351562 311.839844 168.164062 311.839844 C 166.972656 311.839844 165.773438 311.378906 164.863281 310.46875 L 142.460938 288.066406 C 140.640625 286.246094 140.640625 283.292969 142.460938 281.472656 L 164.863281 259.070312 C 166.683594 257.25 169.640625 257.25 171.460938 259.070312 C 173.28125 260.890625 173.28125 263.84375 171.460938 265.664062 Z M 197.066406 257.917969 L 186.417969 313.386719 C 185.992188 315.617188 184.03125 317.175781 181.835938 317.175781 C 181.542969 317.175781 181.246094 317.144531 180.949219 317.089844 C 178.421875 316.605469 176.757812 314.15625 177.246094 311.628906 L 187.898438 256.160156 C 188.378906 253.632812 190.828125 251.976562 193.355469 252.457031 C 195.894531 252.941406 197.550781 255.382812 197.066406 257.917969 Z M 232.546875 281.472656 C 234.367188 283.292969 234.367188 286.246094 232.546875 288.066406 L 210.144531 310.46875 C 209.234375 311.378906 208.035156 311.839844 206.84375 311.839844 C 205.65625 311.839844 204.457031 311.378906 203.546875 310.46875 C 201.726562 308.648438 201.726562 305.695312 203.546875 303.875 L 222.644531 284.769531 L 203.539062 265.664062 C 201.71875 263.84375 201.71875 260.890625 203.539062 259.070312 C 205.359375 257.25 208.316406 257.25 210.136719 259.070312 Z M 232.546875 281.472656 " fill-opacity="1" fill-rule="nonzero"/></svg>