<svg xmlns="http://www.w3.org/2000/svg" xmlns:xlink="http://www.w3.org/1999/xlink" width="500" zoomAndPan="magnify" viewBox="0 0 375 374.999991" height="500" preserveAspectRatio="xMidYMid meet" version="1.0"><path fill="#ff5757" d="M 216.40625 18.75 L 216.40625 134.375 C 216.40625 144.53125 207.8125 153.125 197.65625 153.125 L 98.4375 153.125 L 25 191.40625 L 25 153.125 L 18.75 153.125 C 8.59375 153.125 0 144.53125 0 134.375 L 0 18.75 C 0 8.59375 8.59375 0 18.75 0 L 198.4375 0 C 208.59375 0 216.40625 8.59375 216.40625 18.75 Z M 216.40625 18.75 " fill-opacity="1" fill-rule="nonzero"/><path fill="#ffffff" d="M 71.09375 76.558594 C 71.09375 87.777344 62 96.871094 50.78125 96.871094 C 39.5625 96.871094 30.46875 87.777344 30.46875 76.558594 C 30.46875 65.34375 39.5625 56.25 50.78125 56.25 C 62 56.25 71.09375 65.34375 71.09375 76.558594 Z M 71.09375 76.558594 " fill-opacity="1" fill-rule="nonzero"/><path fill="#ffffff" d="M 128.90625 76.558594 C 128.90625 87.777344 119.8125 96.871094 108.59375 96.871094 C 97.375 96.871094 88.28125 87.777344 88.28125 76.558594 C 88.28125 65.34375 97.375 56.25 108.59375 56.25 C 119.8125 56.25 128.90625 65.34375 128.90625 76.558594 Z M 128.90625 76.558594 " fill-opacity="1" fill-rule="nonzero"/><path fill="#ffffff" d="M 186.71875 76.558594 C 186.71875 87.777344 177.621094 96.871094 166.40625 96.871094 C 155.1875 96.871094 146.09375 87.777344 146.09375 76.558594 C 146.09375 65.34375 155.1875 56.25 166.40625 56.25 C 177.621094 56.25 186.71875 65.34375 186.71875 76.558594 Z M 186.71875 76.558594 " fill-opacity="1" fill-rule="nonzero"/><path fill="#ffd15c" d="M 158.59375 64.84375 L 158.59375 179.683594 C 158.59375 189.839844 167.1875 198.433594 177.34375 198.433594 L 277.34375 198.433594 L 350.777344 236.71875 L 350.777344 198.433594 L 356.25 198.433594 C 366.40625 198.433594 375 189.839844 375 179.683594 L 375 64.84375 C 375 54.6875 366.40625 46.09375 356.25 46.09375 L 176.5625 46.09375 C 166.40625 46.09375 158.59375 54.6875 158.59375 64.84375 Z M 158.59375 64.84375 " fill-opacity="1" fill-rule="nonzero"/><path fill="#ffffff" d="M 344.53125 122.652344 C 344.53125 133.875 335.4375 142.96875 324.21875 142.96875 C 313 142.96875 303.90625 133.875 303.90625 122.652344 C 303.90625 111.433594 313 102.34375 324.21875 102.34375 C 335.4375 102.34375 344.53125 111.433594 344.53125 122.652344 Z M 344.53125 122.652344 " fill-opacity="1" fill-rule="nonzero"/><path fill="#ffffff" d="M 286.71875 122.652344 C 286.71875 133.875 277.621094 142.96875 266.40625 142.96875 C 255.1875 142.96875 246.09375 133.875 246.09375 122.652344 C 246.09375 111.433594 255.1875 102.34375 266.40625 102.34375 C 277.621094 102.34375 286.71875 111.433594 286.71875 122.652344 Z M 286.71875 122.652344 " fill-opacity="1" fill-rule="nonzero"/><path fill="#ffffff" d="M 228.90625 122.652344 C 228.90625 133.875 219.8125 142.96875 208.59375 142.96875 C 197.375 142.96875 188.28125 133.875 188.28125 122.652344 C 188.28125 111.433594 197.375 102.34375 208.59375 102.34375 C 219.8125 102.34375 228.90625 111.433594 228.90625 122.652344 Z M 228.90625 122.652344 " fill-opacity="1" fill-rule="nonzero"/><path fill="#66c6b9" d="M 271.875 203.125 L 271.875 318.75 C 271.875 328.90625 263.28125 337.5 253.125 337.5 L 191.40625 337.5 L 163.28125 375 L 135.15625 336.714844 L 74.21875 336.714844 C 64.0625 336.714844 55.46875 328.121094 55.46875 317.96875 L 55.46875 203.125 C 55.46875 192.96875 64.0625 184.375 74.21875 184.375 L 253.90625 184.375 C 264.0625 184.375 271.875 192.96875 271.875 203.125 Z M 271.875 203.125 " fill-opacity="1" fill-rule="nonzero"/><path fill="#ffffff" d="M 241.40625 260.933594 C 241.40625 272.152344 232.3125 281.246094 221.09375 281.246094 C 209.878906 281.246094 200.78125 272.152344 200.78125 260.933594 C 200.78125 249.71875 209.878906 240.625 221.09375 240.625 C 232.3125 240.625 241.40625 249.71875 241.40625 260.933594 Z M 241.40625 260.933594 " fill-opacity="1" fill-rule="nonzero"/><path fill="#ffffff" d="M 184.375 260.933594 C 184.375 272.152344 175.28125 281.246094 164.0625 281.246094 C 152.84375 281.246094 143.75 272.152344 143.75 260.933594 C 143.75 249.71875 152.84375 240.625 164.0625 240.625 C 175.28125 240.625 184.375 249.71875 184.375 260.933594 Z M 184.375 260.933594 " fill-opacity="1" fill-rule="nonzero"/><path fill="#ffffff" d="M 126.5625 260.933594 C 126.5625 272.152344 117.46875 281.246094 106.25 281.246094 C 95.03125 281.246094 85.9375 272.152344 85.9375 260.933594 C 85.9375 249.71875 95.03125 240.625 106.25 240.625 C 117.46875 240.625 126.5625 249.71875 126.5625 260.933594 Z M 126.5625 260.933594 " fill-opacity="1" fill-rule="nonzero"/></svg>