<svg xmlns="http://www.w3.org/2000/svg" xmlns:xlink="http://www.w3.org/1999/xlink" width="500" zoomAndPan="magnify" viewBox="0 0 375 374.999991" height="500" preserveAspectRatio="xMidYMid meet" version="1.0"><defs><clipPath id="2cfc02d3c1"><path d="M 19 14.355469 L 362 14.355469 L 362 356 L 19 356 Z M 19 14.355469 " clip-rule="nonzero"/></clipPath></defs><g clip-path="url(#2cfc02d3c1)"><path fill="#ff5757" d="M 190.527344 14.355469 C 188.148438 14.351562 185.765625 14.402344 183.386719 14.5 C 181.003906 14.597656 178.628906 14.746094 176.253906 14.945312 C 173.878906 15.144531 171.511719 15.390625 169.148438 15.6875 C 166.785156 15.984375 164.429688 16.332031 162.078125 16.726562 C 159.730469 17.125 157.390625 17.570312 155.058594 18.0625 C 152.730469 18.558594 150.410156 19.097656 148.101562 19.691406 C 145.796875 20.28125 143.5 20.921875 141.21875 21.609375 C 138.9375 22.296875 136.675781 23.03125 134.425781 23.8125 C 132.175781 24.597656 129.941406 25.425781 127.726562 26.300781 C 125.511719 27.179688 123.316406 28.101562 121.136719 29.070312 C 118.960938 30.035156 116.804688 31.050781 114.671875 32.109375 C 112.539062 33.167969 110.425781 34.269531 108.339844 35.417969 C 106.25 36.5625 104.1875 37.753906 102.148438 38.988281 C 100.113281 40.222656 98.101562 41.496094 96.117188 42.8125 C 94.132812 44.132812 92.175781 45.492188 90.25 46.890625 C 88.320312 48.289062 86.421875 49.730469 84.554688 51.210938 C 82.6875 52.6875 80.855469 54.207031 79.050781 55.761719 C 77.246094 57.320312 75.476562 58.914062 73.738281 60.542969 C 72.003906 62.171875 70.300781 63.839844 68.632812 65.542969 C 66.96875 67.242188 65.335938 68.980469 63.742188 70.75 C 62.148438 72.519531 60.589844 74.324219 59.074219 76.15625 C 57.554688 77.992188 56.074219 79.859375 54.632812 81.757812 C 53.195312 83.65625 51.792969 85.582031 50.433594 87.539062 C 49.074219 89.492188 47.757812 91.476562 46.480469 93.488281 C 45.203125 95.5 43.96875 97.539062 42.78125 99.601562 C 41.589844 101.664062 40.441406 103.75 39.335938 105.863281 C 38.234375 107.972656 37.175781 110.105469 36.160156 112.261719 C 35.148438 114.417969 34.179688 116.59375 33.257812 118.789062 C 32.332031 120.984375 31.457031 123.199219 30.625 125.433594 C 29.796875 127.667969 29.015625 129.914062 28.277344 132.179688 C 27.542969 134.445312 26.855469 136.726562 26.214844 139.023438 C 25.574219 141.316406 24.980469 143.625 24.4375 145.941406 C 23.894531 148.261719 23.402344 150.59375 22.953125 152.933594 C 22.507812 155.273438 22.113281 157.621094 21.765625 159.976562 C 21.417969 162.335938 21.121094 164.695312 20.871094 167.066406 C 20.625 169.4375 20.425781 171.808594 20.277344 174.1875 C 20.128906 176.5625 20.027344 178.945312 19.980469 181.324219 C 19.929688 183.707031 19.933594 186.089844 19.984375 188.46875 C 20.035156 190.851562 20.132812 193.230469 20.285156 195.609375 C 20.433594 197.988281 20.636719 200.359375 20.886719 202.730469 C 21.136719 205.097656 21.433594 207.460938 21.785156 209.816406 C 22.132812 212.171875 22.53125 214.523438 22.980469 216.863281 C 23.425781 219.203125 23.921875 221.53125 24.46875 223.851562 C 25.015625 226.167969 25.609375 228.476562 26.25 230.769531 C 26.890625 233.0625 27.582031 235.34375 28.320312 237.609375 C 29.054688 239.875 29.839844 242.121094 30.671875 244.355469 C 31.503906 246.585938 32.382812 248.800781 33.308594 250.996094 C 34.230469 253.191406 35.203125 255.367188 36.21875 257.523438 C 37.234375 259.675781 38.292969 261.808594 39.398438 263.917969 C 40.503906 266.03125 41.652344 268.117188 42.84375 270.179688 C 44.039062 272.242188 45.273438 274.277344 46.550781 276.285156 C 47.828125 278.296875 49.148438 280.28125 50.507812 282.234375 C 51.871094 284.191406 53.273438 286.117188 54.714844 288.011719 C 56.15625 289.910156 57.636719 291.773438 59.15625 293.609375 C 60.675781 295.441406 62.234375 297.246094 63.828125 299.011719 C 65.425781 300.78125 67.058594 302.515625 68.726562 304.21875 C 70.394531 305.917969 72.097656 307.582031 73.835938 309.210938 C 75.574219 310.839844 77.34375 312.433594 79.148438 313.988281 C 80.953125 315.542969 82.789062 317.058594 84.660156 318.539062 C 86.527344 320.015625 88.425781 321.453125 90.355469 322.851562 C 92.28125 324.25 94.238281 325.605469 96.226562 326.921875 C 98.210938 328.238281 100.222656 329.515625 102.261719 330.746094 C 104.300781 331.976562 106.363281 333.167969 108.453125 334.3125 C 110.542969 335.457031 112.652344 336.558594 114.789062 337.613281 C 115.285156 337.875 115.796875 338.101562 116.324219 338.296875 C 119.199219 339.707031 122.113281 341.035156 125.0625 342.28125 C 128.015625 343.527344 130.996094 344.6875 134.015625 345.761719 C 137.03125 346.835938 140.078125 347.824219 143.148438 348.726562 C 146.222656 349.625 149.320312 350.4375 152.441406 351.164062 C 155.558594 351.886719 158.699219 352.523438 161.851562 353.066406 C 165.007812 353.613281 168.179688 354.066406 171.359375 354.433594 C 174.542969 354.796875 177.730469 355.070312 180.929688 355.253906 C 184.125 355.433594 187.328125 355.527344 190.527344 355.527344 C 193.730469 355.527344 196.933594 355.433594 200.128906 355.253906 C 203.328125 355.070312 206.515625 354.796875 209.699219 354.433594 C 212.878906 354.066406 216.050781 353.613281 219.207031 353.066406 C 222.359375 352.523438 225.5 351.886719 228.617188 351.164062 C 231.738281 350.4375 234.835938 349.625 237.910156 348.726562 C 240.980469 347.824219 244.027344 346.835938 247.042969 345.761719 C 250.0625 344.6875 253.042969 343.527344 255.996094 342.28125 C 258.945312 341.035156 261.859375 339.707031 264.734375 338.296875 C 265.261719 338.101562 265.773438 337.875 266.269531 337.613281 C 268.40625 336.558594 270.515625 335.457031 272.605469 334.3125 C 274.695312 333.167969 276.757812 331.976562 278.796875 330.746094 C 280.835938 329.515625 282.847656 328.238281 284.832031 326.921875 C 286.820312 325.605469 288.777344 324.25 290.703125 322.851562 C 292.632812 321.453125 294.53125 320.015625 296.398438 318.539062 C 298.269531 317.058594 300.105469 315.542969 301.910156 313.988281 C 303.714844 312.433594 305.484375 310.839844 307.222656 309.210938 C 308.960938 307.582031 310.664062 305.917969 312.332031 304.21875 C 314 302.515625 315.632812 300.78125 317.230469 299.011719 C 318.824219 297.246094 320.382812 295.441406 321.902344 293.609375 C 323.421875 291.773438 324.902344 289.910156 326.34375 288.011719 C 327.785156 286.117188 329.1875 284.191406 330.550781 282.234375 C 331.910156 280.28125 333.230469 278.296875 334.507812 276.285156 C 335.785156 274.277344 337.019531 272.242188 338.214844 270.179688 C 339.40625 268.117188 340.554688 266.03125 341.660156 263.917969 C 342.765625 261.808594 343.824219 259.675781 344.839844 257.523438 C 345.855469 255.367188 346.828125 253.191406 347.75 250.996094 C 348.675781 248.800781 349.554688 246.585938 350.386719 244.355469 C 351.21875 242.121094 352.003906 239.875 352.738281 237.609375 C 353.476562 235.34375 354.167969 233.0625 354.808594 230.769531 C 355.449219 228.476562 356.042969 226.167969 356.589844 223.851562 C 357.136719 221.53125 357.632812 219.203125 358.078125 216.863281 C 358.527344 214.523438 358.925781 212.171875 359.273438 209.816406 C 359.625 207.460938 359.921875 205.097656 360.171875 202.730469 C 360.421875 200.359375 360.625 197.988281 360.773438 195.609375 C 360.925781 193.230469 361.023438 190.851562 361.074219 188.46875 C 361.125 186.089844 361.128906 183.707031 361.078125 181.324219 C 361.03125 178.945312 360.929688 176.5625 360.78125 174.1875 C 360.632812 171.808594 360.433594 169.4375 360.1875 167.066406 C 359.9375 164.695312 359.640625 162.335938 359.292969 159.976562 C 358.945312 157.621094 358.550781 155.273438 358.105469 152.933594 C 357.65625 150.59375 357.164062 148.261719 356.621094 145.941406 C 356.078125 143.625 355.484375 141.316406 354.84375 139.023438 C 354.203125 136.726562 353.515625 134.445312 352.78125 132.179688 C 352.042969 129.914062 351.261719 127.667969 350.433594 125.433594 C 349.601562 123.199219 348.726562 120.984375 347.800781 118.789062 C 346.878906 116.59375 345.910156 114.417969 344.898438 112.261719 C 343.882812 110.105469 342.824219 107.972656 341.722656 105.863281 C 340.617188 103.75 339.46875 101.664062 338.277344 99.601562 C 337.089844 97.539062 335.855469 95.5 334.578125 93.488281 C 333.300781 91.476562 331.984375 89.492188 330.625 87.539062 C 329.265625 85.582031 327.863281 83.65625 326.425781 81.757812 C 324.984375 79.859375 323.503906 77.992188 321.984375 76.15625 C 320.46875 74.324219 318.910156 72.519531 317.316406 70.75 C 315.722656 68.980469 314.089844 67.242188 312.425781 65.542969 C 310.757812 63.839844 309.054688 62.171875 307.320312 60.542969 C 305.582031 58.914062 303.8125 57.320312 302.007812 55.761719 C 300.203125 54.207031 298.371094 52.6875 296.503906 51.210938 C 294.636719 49.730469 292.738281 48.289062 290.808594 46.890625 C 288.882812 45.492188 286.925781 44.132812 284.941406 42.8125 C 282.957031 41.496094 280.945312 40.222656 278.910156 38.988281 C 276.871094 37.753906 274.808594 36.5625 272.71875 35.417969 C 270.632812 34.269531 268.519531 33.167969 266.386719 32.109375 C 264.253906 31.050781 262.097656 30.035156 259.921875 29.070312 C 257.742188 28.101562 255.546875 27.179688 253.332031 26.300781 C 251.117188 25.425781 248.882812 24.597656 246.632812 23.8125 C 244.382812 23.03125 242.121094 22.296875 239.839844 21.609375 C 237.558594 20.921875 235.261719 20.28125 232.957031 19.691406 C 230.648438 19.097656 228.328125 18.558594 226 18.0625 C 223.667969 17.570312 221.328125 17.125 218.980469 16.726562 C 216.628906 16.332031 214.273438 15.984375 211.910156 15.6875 C 209.546875 15.390625 207.179688 15.144531 204.804688 14.945312 C 202.429688 14.746094 200.054688 14.597656 197.671875 14.5 C 195.292969 14.402344 192.910156 14.351562 190.527344 14.355469 Z M 190.527344 82.589844 C 192.207031 82.589844 193.878906 82.671875 195.546875 82.835938 C 197.214844 83 198.871094 83.246094 200.511719 83.574219 C 202.15625 83.898438 203.78125 84.304688 205.386719 84.792969 C 206.988281 85.28125 208.566406 85.84375 210.113281 86.484375 C 211.660156 87.125 213.175781 87.84375 214.652344 88.632812 C 216.132812 89.421875 217.566406 90.28125 218.960938 91.214844 C 220.355469 92.144531 221.699219 93.140625 222.996094 94.207031 C 224.289062 95.269531 225.53125 96.394531 226.714844 97.578125 C 227.902344 98.761719 229.023438 100.003906 230.089844 101.300781 C 231.152344 102.59375 232.148438 103.941406 233.082031 105.332031 C 234.011719 106.726562 234.871094 108.164062 235.664062 109.640625 C 236.453125 111.117188 237.167969 112.632812 237.808594 114.179688 C 238.449219 115.730469 239.015625 117.304688 239.5 118.910156 C 239.988281 120.511719 240.394531 122.136719 240.722656 123.78125 C 241.046875 125.425781 241.292969 127.082031 241.457031 128.75 C 241.621094 130.417969 241.703125 132.089844 241.703125 133.765625 C 241.703125 135.441406 241.621094 137.113281 241.457031 138.78125 C 241.292969 140.449219 241.046875 142.105469 240.722656 143.75 C 240.394531 145.394531 239.988281 147.015625 239.5 148.621094 C 239.015625 150.222656 238.449219 151.800781 237.808594 153.347656 C 237.167969 154.898438 236.453125 156.410156 235.664062 157.890625 C 234.871094 159.367188 234.011719 160.804688 233.082031 162.195312 C 232.148438 163.589844 231.152344 164.933594 230.089844 166.230469 C 229.023438 167.527344 227.902344 168.765625 226.714844 169.953125 C 225.53125 171.136719 224.289062 172.261719 222.996094 173.324219 C 221.699219 174.386719 220.355469 175.386719 218.960938 176.316406 C 217.566406 177.246094 216.132812 178.109375 214.652344 178.898438 C 213.175781 179.6875 211.660156 180.402344 210.113281 181.046875 C 208.566406 181.6875 206.988281 182.25 205.386719 182.738281 C 203.78125 183.222656 202.15625 183.628906 200.511719 183.957031 C 198.871094 184.285156 197.214844 184.53125 195.546875 184.695312 C 193.878906 184.859375 192.207031 184.941406 190.527344 184.941406 C 188.851562 184.941406 187.179688 184.859375 185.511719 184.695312 C 183.84375 184.53125 182.1875 184.285156 180.546875 183.957031 C 178.902344 183.628906 177.277344 183.222656 175.671875 182.738281 C 174.070312 182.25 172.492188 181.6875 170.945312 181.046875 C 169.398438 180.402344 167.882812 179.6875 166.40625 178.898438 C 164.925781 178.109375 163.492188 177.246094 162.097656 176.316406 C 160.703125 175.386719 159.359375 174.386719 158.0625 173.324219 C 156.769531 172.261719 155.527344 171.136719 154.34375 169.953125 C 153.15625 168.765625 152.03125 167.527344 150.96875 166.230469 C 149.90625 164.933594 148.910156 163.589844 147.976562 162.195312 C 147.046875 160.804688 146.1875 159.367188 145.394531 157.890625 C 144.605469 156.410156 143.890625 154.898438 143.25 153.347656 C 142.609375 151.800781 142.042969 150.222656 141.558594 148.621094 C 141.070312 147.015625 140.664062 145.394531 140.335938 143.75 C 140.011719 142.105469 139.765625 140.449219 139.601562 138.78125 C 139.4375 137.113281 139.355469 135.441406 139.355469 133.765625 C 139.359375 132.089844 139.445312 130.417969 139.613281 128.753906 C 139.78125 127.085938 140.03125 125.433594 140.363281 123.792969 C 140.691406 122.148438 141.101562 120.527344 141.589844 118.925781 C 142.078125 117.324219 142.644531 115.75 143.289062 114.203125 C 143.933594 112.65625 144.648438 111.148438 145.441406 109.671875 C 146.230469 108.195312 147.09375 106.761719 148.023438 105.367188 C 148.957031 103.976562 149.953125 102.632812 151.015625 101.339844 C 152.078125 100.046875 153.203125 98.804688 154.386719 97.621094 C 155.570312 96.4375 156.808594 95.3125 158.105469 94.25 C 159.398438 93.1875 160.742188 92.191406 162.132812 91.261719 C 163.523438 90.328125 164.957031 89.46875 166.433594 88.675781 C 167.910156 87.886719 169.421875 87.167969 170.96875 86.523438 C 172.515625 85.882812 174.089844 85.316406 175.691406 84.828125 C 177.292969 84.335938 178.914062 83.925781 180.554688 83.597656 C 182.199219 83.265625 183.851562 83.019531 185.519531 82.847656 C 187.183594 82.679688 188.855469 82.59375 190.527344 82.589844 Z M 241.703125 311.34375 C 237.78125 312.878906 233.6875 314.414062 229.59375 315.609375 C 225.839844 316.804688 221.917969 317.828125 217.992188 318.679688 C 217.652344 318.679688 217.3125 318.851562 216.96875 318.851562 C 212.875 319.703125 208.613281 320.214844 204.515625 320.726562 L 204.003906 320.726562 C 195.019531 321.640625 186.039062 321.640625 177.054688 320.726562 L 176.542969 320.726562 C 172.445312 320.214844 168.183594 319.703125 164.089844 318.851562 C 163.746094 318.851562 163.40625 318.679688 163.066406 318.679688 C 159.140625 317.828125 155.21875 316.804688 151.464844 315.609375 C 147.371094 314.414062 143.277344 312.878906 139.355469 311.34375 C 126.972656 306.417969 115.597656 299.765625 105.238281 291.386719 L 105.238281 287.292969 C 105.238281 285.894531 105.269531 284.5 105.339844 283.105469 C 105.40625 281.710938 105.511719 280.320312 105.648438 278.933594 C 105.785156 277.542969 105.953125 276.15625 106.160156 274.777344 C 106.363281 273.394531 106.601562 272.019531 106.875 270.652344 C 107.148438 269.285156 107.453125 267.921875 107.792969 266.566406 C 108.132812 265.214844 108.503906 263.867188 108.910156 262.53125 C 109.3125 261.195312 109.753906 259.871094 110.222656 258.558594 C 110.691406 257.242188 111.195312 255.941406 111.730469 254.652344 C 112.261719 253.363281 112.828125 252.085938 113.425781 250.824219 C 114.023438 249.5625 114.648438 248.316406 115.308594 247.085938 C 115.964844 245.855469 116.652344 244.640625 117.371094 243.441406 C 118.089844 242.246094 118.835938 241.066406 119.609375 239.90625 C 120.386719 238.746094 121.191406 237.605469 122.019531 236.484375 C 122.851562 235.363281 123.710938 234.261719 124.597656 233.183594 C 125.484375 232.105469 126.394531 231.046875 127.332031 230.011719 C 128.269531 228.980469 129.230469 227.96875 130.21875 226.980469 C 131.207031 225.992188 132.214844 225.03125 133.25 224.09375 C 134.285156 223.15625 135.339844 222.246094 136.421875 221.359375 C 137.5 220.472656 138.597656 219.617188 139.71875 218.785156 C 140.839844 217.953125 141.984375 217.148438 143.144531 216.375 C 144.304688 215.597656 145.484375 214.851562 146.679688 214.132812 C 147.878906 213.417969 149.089844 212.730469 150.324219 212.070312 C 151.554688 211.414062 152.800781 210.785156 154.0625 210.1875 C 155.324219 209.589844 156.597656 209.027344 157.890625 208.492188 C 159.179688 207.957031 160.480469 207.457031 161.796875 206.984375 C 163.109375 206.515625 164.433594 206.078125 165.769531 205.671875 C 167.105469 205.265625 168.449219 204.894531 169.804688 204.554688 C 171.160156 204.214844 172.519531 203.910156 173.890625 203.636719 C 175.257812 203.367188 176.632812 203.128906 178.015625 202.921875 C 179.394531 202.71875 180.78125 202.546875 182.167969 202.410156 C 183.558594 202.273438 184.949219 202.171875 186.34375 202.101562 C 187.738281 202.035156 189.132812 202 190.527344 202 C 191.925781 202 193.320312 202.035156 194.714844 202.101562 C 196.109375 202.171875 197.5 202.273438 198.890625 202.410156 C 200.277344 202.546875 201.664062 202.71875 203.042969 202.921875 C 204.425781 203.128906 205.800781 203.367188 207.167969 203.636719 C 208.539062 203.910156 209.898438 204.214844 211.253906 204.554688 C 212.609375 204.894531 213.953125 205.265625 215.289062 205.671875 C 216.625 206.078125 217.949219 206.515625 219.261719 206.984375 C 220.578125 207.457031 221.878906 207.957031 223.167969 208.492188 C 224.460938 209.027344 225.734375 209.589844 226.996094 210.1875 C 228.257812 210.785156 229.503906 211.414062 230.734375 212.070312 C 231.96875 212.730469 233.179688 213.417969 234.378906 214.132812 C 235.574219 214.851562 236.753906 215.597656 237.914062 216.375 C 239.074219 217.148438 240.21875 217.953125 241.339844 218.785156 C 242.460938 219.617188 243.558594 220.472656 244.636719 221.359375 C 245.71875 222.246094 246.773438 223.15625 247.808594 224.09375 C 248.84375 225.03125 249.851562 225.992188 250.839844 226.980469 C 251.828125 227.96875 252.789062 228.980469 253.726562 230.011719 C 254.664062 231.046875 255.574219 232.105469 256.460938 233.183594 C 257.347656 234.261719 258.207031 235.363281 259.039062 236.484375 C 259.867188 237.605469 260.671875 238.746094 261.449219 239.90625 C 262.222656 241.066406 262.96875 242.246094 263.6875 243.441406 C 264.40625 244.640625 265.09375 245.855469 265.75 247.085938 C 266.410156 248.316406 267.035156 249.5625 267.632812 250.824219 C 268.230469 252.085938 268.796875 253.363281 269.328125 254.652344 C 269.863281 255.941406 270.367188 257.242188 270.835938 258.558594 C 271.304688 259.871094 271.746094 261.195312 272.148438 262.53125 C 272.554688 263.867188 272.925781 265.214844 273.265625 266.566406 C 273.605469 267.921875 273.910156 269.285156 274.183594 270.652344 C 274.457031 272.019531 274.695312 273.394531 274.898438 274.777344 C 275.105469 276.15625 275.273438 277.542969 275.410156 278.933594 C 275.546875 280.320312 275.652344 281.710938 275.71875 283.105469 C 275.789062 284.5 275.820312 285.894531 275.820312 287.292969 L 275.820312 291.386719 C 265.460938 299.765625 254.085938 306.417969 241.703125 311.34375 Z M 241.703125 311.34375 " fill-opacity="1" fill-rule="nonzero"/></g></svg>