<svg xmlns="http://www.w3.org/2000/svg" xmlns:xlink="http://www.w3.org/1999/xlink" width="500" zoomAndPan="magnify" viewBox="0 0 375 374.999991" height="500" preserveAspectRatio="xMidYMid meet" version="1.0"><path fill="#000000" d="M 318.75 237.5 L 96.335938 237.5 L 59.59375 200.757812 C 57.445312 198.609375 56.25 195.726562 56.25 192.675781 C 56.25 186.375 61.375 181.25 67.675781 181.25 C 70.679688 181.25 73.632812 182.46875 75.757812 184.59375 L 103.660156 212.5 L 147.09375 212.5 C 151.441406 219.96875 159.519531 225 168.75 225 L 225 225 L 225 212.5 L 168.75 212.5 C 161.863281 212.5 156.25 206.882812 156.25 200 C 156.25 193.113281 161.863281 187.5 168.75 187.5 L 224 187.5 L 261.5 200 L 318.75 200 Z M 226 175 L 168.75 175 C 154.957031 175 143.75 186.207031 143.75 200 L 108.835938 200 L 84.59375 175.757812 C 80.078125 171.238281 74.070312 168.75 67.675781 168.75 C 54.492188 168.75 43.75 179.492188 43.75 192.675781 C 43.75 199.070312 46.242188 205.078125 50.757812 209.59375 L 91.160156 250 L 331.25 250 L 331.25 187.5 L 263.5 187.5 L 226 175 " fill-opacity="1" fill-rule="nonzero"/><path fill="#000000" d="M 203.855469 62.5 L 171.140625 62.5 C 175.535156 58.667969 181.199219 56.25 187.5 56.25 C 193.796875 56.25 199.460938 58.667969 203.855469 62.5 Z M 187.5 106.25 C 173.707031 106.25 162.5 95.042969 162.5 81.25 C 162.5 79.078125 162.867188 77 163.378906 75 L 211.621094 75 C 212.132812 77 212.5 79.078125 212.5 81.25 C 212.5 95.042969 201.292969 106.25 187.5 106.25 Z M 187.5 118.75 C 208.179688 118.75 225 101.929688 225 81.25 C 225 60.570312 208.179688 43.75 187.5 43.75 C 166.820312 43.75 150 60.570312 150 81.25 C 150 101.929688 166.820312 118.75 187.5 118.75 " fill-opacity="1" fill-rule="nonzero"/><path fill="#000000" d="M 362.5 75 L 362.5 262.5 L 12.5 262.5 L 12.5 75 L 106.25 75 L 106.25 100 L 127.90625 100 C 129.003906 103.492188 130.417969 106.859375 132.128906 110.105469 L 116.796875 125.4375 L 143.308594 151.953125 L 158.640625 136.644531 C 161.890625 138.328125 165.257812 139.746094 168.75 140.84375 L 168.75 162.5 L 206.25 162.5 L 206.25 140.84375 C 209.742188 139.746094 213.109375 138.328125 216.355469 136.644531 L 231.6875 151.953125 L 258.203125 125.4375 L 242.871094 110.105469 C 244.578125 106.859375 245.996094 103.492188 247.09375 100 L 268.75 100 L 268.75 75 Z M 362.5 300 L 12.5 300 L 12.5 275 L 362.5 275 Z M 212.5 331.25 L 162.5 331.25 L 162.5 312.5 L 212.5 312.5 Z M 152.976562 362.5 L 160.472656 343.75 L 214.527344 343.75 L 222.019531 362.5 Z M 118.75 75 L 137.671875 75 L 138.792969 70.140625 C 140.039062 64.648438 142.1875 59.449219 145.191406 54.6875 L 147.851562 50.464844 L 134.472656 37.058594 L 143.308594 28.222656 L 156.714844 41.601562 L 160.914062 38.964844 C 165.722656 35.9375 170.921875 33.789062 176.390625 32.542969 L 181.25 31.421875 L 181.25 12.5 L 193.75 12.5 L 193.75 31.421875 L 198.609375 32.542969 C 204.078125 33.789062 209.277344 35.9375 214.085938 38.964844 L 218.285156 41.601562 L 231.6875 28.222656 L 240.527344 37.058594 L 227.148438 50.464844 L 229.808594 54.6875 C 232.8125 59.449219 234.960938 64.648438 236.207031 70.140625 L 237.328125 75 L 256.25 75 L 256.25 87.5 L 237.328125 87.5 L 236.207031 92.359375 C 234.960938 97.851562 232.8125 103.050781 229.808594 107.8125 L 227.148438 112.035156 L 240.527344 125.4375 L 231.6875 134.277344 L 218.285156 120.898438 L 214.085938 123.535156 C 209.277344 126.5625 204.101562 128.710938 198.609375 129.957031 L 193.75 131.078125 L 193.75 150 L 181.25 150 L 181.25 131.078125 L 176.390625 129.957031 C 170.898438 128.710938 165.722656 126.5625 160.914062 123.535156 L 156.714844 120.898438 L 143.308594 134.277344 L 134.472656 125.4375 L 147.851562 112.035156 L 145.191406 107.8125 C 142.1875 103.050781 140.039062 97.851562 138.792969 92.359375 L 137.671875 87.5 L 118.75 87.5 Z M 247.09375 62.5 C 245.996094 59.007812 244.578125 55.640625 242.871094 52.390625 L 258.203125 37.058594 L 231.6875 10.546875 L 216.355469 25.878906 C 213.109375 24.171875 209.742188 22.753906 206.25 21.65625 L 206.25 0 L 168.75 0 L 168.75 21.65625 C 165.257812 22.753906 161.890625 24.171875 158.640625 25.878906 L 143.308594 10.546875 L 116.796875 37.058594 L 132.128906 52.390625 C 130.417969 55.640625 129.003906 59.007812 127.90625 62.5 L 0 62.5 L 0 312.5 L 150 312.5 L 150 336.304688 L 134.519531 375 L 240.476562 375 L 225 336.304688 L 225 312.5 L 375 312.5 L 375 62.5 L 247.09375 62.5 " fill-opacity="1" fill-rule="nonzero"/></svg>