<svg xmlns="http://www.w3.org/2000/svg" xmlns:xlink="http://www.w3.org/1999/xlink" width="500" zoomAndPan="magnify" viewBox="0 0 375 374.999991" height="500" preserveAspectRatio="xMidYMid meet" version="1.0"><defs><clipPath id="e852efe2db"><path d="M 5.796875 0 L 369.546875 0 L 369.546875 375 L 5.796875 375 Z M 5.796875 0 " clip-rule="nonzero"/></clipPath></defs><path fill="#000000" d="M 68.867188 147.144531 L 68.867188 102.167969 C 68.867188 100.523438 67.535156 99.191406 65.890625 99.191406 L 31.710938 99.191406 C 30.0625 99.191406 28.730469 100.523438 28.730469 102.167969 L 28.730469 147.144531 C 28.730469 148.785156 30.0625 150.117188 31.710938 150.117188 L 65.890625 150.117188 C 67.535156 150.117188 68.867188 148.785156 68.867188 147.144531 Z M 62.910156 144.167969 L 34.6875 144.167969 L 34.6875 105.144531 L 62.910156 105.144531 Z M 62.910156 144.167969 " fill-opacity="1" fill-rule="nonzero"/><path fill="#000000" d="M 191.207031 84.199219 C 149.78125 84.199219 116.074219 117.480469 116.074219 158.386719 C 116.074219 199.292969 149.777344 232.574219 191.207031 232.574219 C 232.636719 232.574219 266.339844 199.292969 266.339844 158.386719 C 266.339844 117.480469 232.632812 84.199219 191.207031 84.199219 Z M 191.207031 226.621094 C 153.0625 226.621094 122.03125 196.011719 122.03125 158.386719 C 122.03125 120.761719 153.0625 90.152344 191.207031 90.152344 C 229.351562 90.152344 260.378906 120.761719 260.378906 158.386719 C 260.378906 196.011719 229.347656 226.621094 191.207031 226.621094 Z M 191.207031 226.621094 " fill-opacity="1" fill-rule="nonzero"/><g clip-path="url(#e852efe2db)"><path fill="#000000" d="M 369.394531 2.976562 C 369.394531 1.332031 368.0625 0 366.414062 0 L 319.589844 0 C 318.804688 0 318.050781 0.308594 317.496094 0.859375 L 267.234375 50.464844 L 43.105469 50.464844 C 41.457031 50.464844 40.125 51.796875 40.125 53.441406 L 40.125 76.699219 L 8.925781 76.699219 C 7.277344 76.699219 5.945312 78.03125 5.945312 79.675781 L 5.945312 372.023438 C 5.945312 373.667969 7.277344 375 8.925781 375 L 236.773438 375 C 238.421875 375 239.753906 373.667969 239.753906 372.023438 L 239.753906 348.765625 L 270.953125 348.765625 C 272.601562 348.765625 273.933594 347.429688 273.933594 345.789062 L 273.933594 202.671875 C 281.195312 189.5 285.324219 174.410156 285.324219 158.386719 C 285.324219 141.429688 280.675781 125.53125 272.609375 111.832031 L 281.996094 102.570312 L 285.273438 105.804688 C 285.855469 106.375 286.613281 106.664062 287.367188 106.664062 C 288.125 106.664062 288.882812 106.378906 289.460938 105.804688 L 300.113281 95.292969 L 368.296875 39.738281 C 368.636719 39.460938 368.882812 39.125 369.070312 38.757812 C 369.125 38.644531 369.132812 38.519531 369.175781 38.40625 C 369.273438 38.132812 369.351562 37.855469 369.363281 37.570312 C 369.367188 37.519531 369.394531 37.480469 369.394531 37.429688 Z M 320.8125 5.953125 L 363.4375 5.953125 L 363.4375 36.019531 L 298.296875 89.089844 L 267.441406 58.632812 Z M 46.085938 56.417969 L 255.835938 56.417969 L 247.679688 64.464844 C 247.117188 65.023438 246.796875 65.785156 246.796875 66.582031 C 246.796875 67.378906 247.113281 68.136719 247.679688 68.695312 L 250.90625 71.882812 L 242.28125 80.390625 C 227.558594 70.957031 210.027344 65.457031 191.207031 65.457031 C 174.984375 65.457031 159.703125 69.53125 146.363281 76.699219 L 46.085938 76.699219 Z M 233.796875 369.046875 L 11.90625 369.046875 L 11.90625 82.652344 L 136.765625 82.652344 C 112.78125 99.511719 97.089844 127.164062 97.089844 158.382812 C 97.089844 162.457031 97.382812 166.460938 97.902344 170.398438 L 35.507812 170.398438 C 33.859375 170.398438 32.53125 171.730469 32.53125 173.375 L 32.53125 342.035156 C 32.53125 343.679688 33.859375 345.011719 35.507812 345.011719 L 210.195312 345.011719 C 211.84375 345.011719 213.175781 343.679688 213.175781 342.035156 L 213.175781 248.730469 C 220.410156 247.019531 227.316406 244.476562 233.796875 241.214844 Z M 191.207031 251.316406 C 196.667969 251.316406 202.007812 250.828125 207.214844 249.945312 L 207.214844 339.066406 L 190.390625 339.066406 L 190.390625 251.296875 C 190.660156 251.296875 190.929688 251.316406 191.207031 251.316406 Z M 184.429688 339.0625 L 167.601562 339.0625 L 167.601562 248.355469 C 173.039062 249.742188 178.667969 250.640625 184.429688 251.046875 Z M 161.644531 339.0625 L 144.820312 339.0625 L 144.820312 239.195312 C 150.132812 242.179688 155.757812 244.664062 161.644531 246.59375 Z M 138.859375 339.0625 L 122.03125 339.0625 L 122.03125 221.320312 C 127.050781 226.691406 132.695312 231.484375 138.859375 235.574219 Z M 80.261719 339.0625 L 80.261719 316.21875 L 116.070312 316.21875 L 116.070312 339.0625 Z M 38.488281 339.0625 L 38.488281 201.035156 L 74.300781 201.035156 L 74.300781 339.0625 Z M 38.488281 195.082031 L 38.488281 176.355469 L 74.300781 176.355469 L 74.300781 195.082031 Z M 116.074219 281.472656 L 80.261719 281.472656 L 80.261719 258.628906 L 116.070312 258.628906 L 116.070312 281.472656 Z M 80.261719 287.425781 L 116.070312 287.425781 L 116.070312 310.269531 L 80.261719 310.269531 Z M 116.074219 252.675781 L 80.261719 252.675781 L 80.261719 229.832031 L 116.070312 229.832031 L 116.070312 252.675781 Z M 116.074219 223.882812 L 80.261719 223.882812 L 80.261719 201.039062 L 107.628906 201.039062 C 110.074219 205.695312 112.894531 210.128906 116.074219 214.28125 Z M 80.261719 195.082031 L 80.261719 176.355469 L 98.871094 176.355469 C 100.167969 182.867188 102.152344 189.132812 104.753906 195.082031 Z M 267.972656 342.8125 L 239.753906 342.8125 L 239.753906 237.96875 C 250.871094 231.332031 260.472656 222.480469 267.972656 212.050781 Z M 191.207031 245.363281 C 142.597656 245.363281 103.046875 206.34375 103.046875 158.386719 C 103.046875 110.429688 142.59375 71.410156 191.207031 71.410156 C 239.820312 71.410156 279.371094 110.429688 279.371094 158.386719 C 279.371094 206.34375 239.820312 245.363281 191.207031 245.363281 Z M 269.363281 106.667969 C 263.371094 97.867188 255.898438 90.132812 247.296875 83.8125 L 255.144531 76.070312 L 277.757812 98.386719 Z M 287.367188 99.503906 L 284.09375 96.269531 L 258.925781 71.429688 C 258.925781 71.429688 258.921875 71.425781 258.921875 71.421875 L 254.015625 66.582031 L 260.519531 60.167969 L 293.875 93.085938 Z M 287.367188 99.503906 " fill-opacity="1" fill-rule="nonzero"/></g><path fill="#000000" d="M 146.675781 146.214844 C 146.945312 146.234375 147.21875 146.242188 147.484375 146.242188 C 152.949219 146.242188 157.597656 142.054688 158.019531 136.570312 C 158.230469 133.796875 157.347656 131.105469 155.527344 128.984375 C 153.683594 126.84375 151.109375 125.542969 148.273438 125.332031 C 142.40625 124.90625 137.375 129.222656 136.929688 134.976562 C 136.714844 137.75 137.601562 140.441406 139.417969 142.558594 C 141.265625 144.703125 143.839844 146.003906 146.675781 146.214844 Z M 147.472656 131.253906 C 147.589844 131.253906 147.710938 131.257812 147.828125 131.265625 C 149.074219 131.359375 150.203125 131.925781 151.003906 132.863281 C 151.789062 133.773438 152.167969 134.929688 152.078125 136.113281 C 151.882812 138.601562 149.675781 140.445312 147.121094 140.28125 C 145.875 140.183594 144.746094 139.617188 143.941406 138.679688 C 143.160156 137.773438 142.777344 136.617188 142.875 135.433594 C 143.054688 133.058594 145.082031 131.253906 147.472656 131.253906 Z M 147.472656 131.253906 " fill-opacity="1" fill-rule="nonzero"/><path fill="#000000" d="M 154.945312 171.234375 C 154.296875 168.328125 154.210938 165.347656 154.6875 162.378906 C 155.191406 159.230469 154.125 156.054688 151.824219 153.882812 C 149.53125 151.71875 146.433594 150.859375 143.332031 151.539062 L 142.875 151.640625 C 139.933594 152.28125 137.453125 154.269531 136.238281 156.964844 C 132.535156 165.191406 133.644531 172.84375 134.292969 175.753906 C 136.039062 183.582031 140.496094 188.832031 143.925781 191.863281 C 145.703125 193.429688 147.984375 194.273438 150.300781 194.273438 C 150.972656 194.273438 151.644531 194.203125 152.308594 194.058594 L 152.769531 193.957031 C 155.867188 193.28125 158.414062 191.132812 159.582031 188.203125 C 160.714844 185.351562 160.367188 182.148438 158.648438 179.632812 C 156.289062 176.179688 155.316406 172.890625 154.945312 171.234375 Z M 154.046875 186.003906 C 153.609375 187.09375 152.660156 187.894531 151.5 188.144531 L 151.039062 188.246094 C 149.914062 188.492188 148.75 188.183594 147.875 187.40625 C 145.101562 184.960938 141.511719 180.730469 140.113281 174.460938 C 139.59375 172.132812 138.703125 166.003906 141.671875 159.40625 C 142.113281 158.425781 143.039062 157.699219 144.140625 157.457031 L 144.597656 157.355469 C 144.859375 157.300781 145.121094 157.273438 145.375 157.273438 C 146.253906 157.273438 147.082031 157.597656 147.730469 158.210938 C 148.609375 159.039062 149 160.21875 148.800781 161.4375 C 148.207031 165.15625 148.316406 168.886719 149.128906 172.53125 C 149.59375 174.605469 150.808594 178.71875 153.722656 182.988281 C 154.335938 183.882812 154.453125 184.980469 154.046875 186.003906 Z M 154.046875 186.003906 " fill-opacity="1" fill-rule="nonzero"/></svg>