<svg xmlns="http://www.w3.org/2000/svg" xmlns:xlink="http://www.w3.org/1999/xlink" width="500" zoomAndPan="magnify" viewBox="0 0 375 374.999991" height="500" preserveAspectRatio="xMidYMid meet" version="1.0"><path fill="#000000" d="M 180.394531 341.433594 C 181.550781 341.433594 182.476562 340.507812 182.476562 339.351562 C 182.476562 338.195312 181.550781 337.269531 180.394531 337.269531 L 128.558594 337.269531 C 127.398438 337.269531 126.472656 338.195312 126.472656 339.351562 C 126.472656 342.128906 125.316406 341.433594 180.394531 341.433594 Z M 180.394531 341.433594 " fill-opacity="1" fill-rule="nonzero"/><path fill="#000000" d="M 188.726562 341.433594 L 197.289062 341.433594 C 198.445312 341.433594 199.371094 340.507812 199.371094 339.351562 C 199.371094 338.195312 198.445312 337.269531 197.289062 337.269531 L 188.726562 337.269531 C 187.570312 337.269531 186.644531 338.195312 186.644531 339.351562 C 186.644531 340.277344 187.570312 341.433594 188.726562 341.433594 Z M 188.726562 341.433594 " fill-opacity="1" fill-rule="nonzero"/><path fill="#000000" d="M 204.695312 341.433594 L 210.246094 341.433594 C 211.40625 341.433594 212.332031 340.507812 212.332031 339.351562 C 212.332031 338.195312 211.40625 337.269531 210.246094 337.269531 L 204.695312 337.269531 C 203.535156 337.269531 202.609375 338.195312 202.609375 339.351562 C 202.609375 340.277344 203.535156 341.433594 204.695312 341.433594 Z M 204.695312 341.433594 " fill-opacity="1" fill-rule="nonzero"/><path fill="#000000" d="M 192.429688 349.769531 C 192.429688 350.925781 193.355469 351.851562 194.511719 351.851562 L 246.582031 351.851562 C 247.738281 351.851562 248.664062 350.925781 248.664062 349.769531 C 248.664062 348.609375 247.738281 347.683594 246.582031 347.683594 L 194.742188 347.683594 C 193.585938 347.453125 192.429688 348.378906 192.429688 349.769531 Z M 192.429688 349.769531 " fill-opacity="1" fill-rule="nonzero"/><path fill="#000000" d="M 175.765625 349.769531 C 175.765625 350.925781 176.691406 351.851562 177.847656 351.851562 L 186.410156 351.851562 C 187.570312 351.851562 188.496094 350.925781 188.496094 349.769531 C 188.496094 348.609375 187.570312 347.683594 186.410156 347.683594 L 177.847656 347.683594 C 176.691406 347.453125 175.765625 348.378906 175.765625 349.769531 Z M 175.765625 349.769531 " fill-opacity="1" fill-rule="nonzero"/><path fill="#000000" d="M 170.445312 347.453125 L 164.890625 347.453125 C 163.734375 347.453125 162.808594 348.378906 162.808594 349.535156 C 162.808594 350.695312 163.734375 351.621094 164.890625 351.621094 L 170.445312 351.621094 C 171.601562 351.621094 172.527344 350.695312 172.527344 349.535156 C 172.527344 348.378906 171.601562 347.453125 170.445312 347.453125 Z M 170.445312 347.453125 " fill-opacity="1" fill-rule="nonzero"/><path fill="#000000" d="M 72.554688 278.933594 L 302.351562 278.933594 C 303.511719 278.933594 304.433594 278.007812 304.433594 276.851562 L 304.433594 138.425781 C 304.433594 137.269531 303.511719 136.34375 302.351562 136.34375 L 72.554688 136.34375 C 71.398438 136.34375 70.472656 137.269531 70.472656 138.425781 L 70.472656 276.621094 C 70.472656 278.007812 71.398438 278.933594 72.554688 278.933594 Z M 74.867188 140.507812 L 300.5 140.507812 L 300.5 274.535156 L 74.867188 274.535156 Z M 74.867188 140.507812 " fill-opacity="1" fill-rule="nonzero"/><path fill="#000000" d="M 349.5625 294.675781 L 333.59375 294.675781 C 351.414062 266.898438 360.671875 234.722656 360.671875 201.621094 C 360.671875 131.480469 319.015625 68.980469 254.679688 41.898438 L 257.921875 36.34375 C 258.382812 35.417969 258.382812 34.492188 257.6875 33.796875 L 242.183594 18.285156 C 241.488281 17.359375 240.332031 17.359375 239.636719 17.824219 L 222.511719 27.777344 C 217.191406 24.769531 211.636719 22.453125 205.621094 20.832031 L 200.527344 1.621094 C 200.296875 0.695312 199.371094 0 198.445312 0 L 176.460938 0 C 175.535156 0 174.609375 0.695312 174.378906 1.621094 L 169.285156 20.832031 C 163.5 22.453125 157.714844 24.769531 152.394531 27.777344 L 135.5 17.824219 C 134.804688 17.359375 133.648438 17.359375 132.953125 18.054688 L 117.449219 33.566406 C 116.753906 34.257812 116.523438 35.417969 117.21875 36.109375 L 120.457031 41.667969 C 55.890625 68.980469 14.234375 131.480469 14.234375 201.621094 C 14.234375 234.722656 23.722656 266.898438 41.3125 294.675781 L 25.34375 294.675781 C 24.1875 294.675781 23.261719 295.601562 23.261719 296.757812 L 23.261719 304.167969 C 23.261719 316.203125 33.210938 326.15625 45.246094 326.15625 L 67 326.15625 C 100.554688 358.566406 143.832031 375 187.570312 375 C 231.074219 375 274.582031 358.566406 307.90625 326.15625 L 329.660156 326.15625 C 341.695312 326.15625 351.644531 316.203125 351.644531 304.167969 L 351.644531 296.757812 C 351.875 295.601562 350.949219 294.675781 349.5625 294.675781 Z M 356.503906 201.621094 C 356.503906 234.953125 346.785156 267.128906 328.503906 294.675781 L 325.496094 294.675781 L 325.496094 133.332031 C 325.496094 123.378906 317.394531 115.046875 307.445312 115.046875 L 252.828125 115.046875 C 253.984375 112.035156 254.910156 109.027344 255.835938 106.019531 L 274.121094 101.15625 C 275.046875 100.925781 275.738281 100 275.738281 99.074219 L 275.738281 77.082031 C 275.738281 76.15625 275.046875 75.230469 274.121094 75 L 255.375 70.140625 C 253.753906 64.121094 251.210938 58.332031 247.96875 53.007812 L 252.367188 45.371094 C 315.773438 71.992188 356.503906 132.871094 356.503906 201.621094 Z M 125.316406 119.445312 L 307.445312 119.445312 C 315.082031 119.445312 321.328125 125.695312 321.328125 133.332031 L 321.328125 294.675781 L 233.621094 294.675781 C 232.925781 294.675781 232.464844 294.90625 232 295.371094 L 222.746094 305.554688 L 152.394531 305.554688 L 143.136719 295.371094 C 142.671875 294.90625 142.210938 294.675781 141.515625 294.675781 L 53.808594 294.675781 L 53.808594 133.332031 C 53.808594 125.695312 60.058594 119.445312 67.695312 119.445312 Z M 151.46875 88.195312 C 151.46875 68.285156 167.667969 52.082031 187.570312 52.082031 C 207.472656 52.082031 223.671875 68.285156 223.671875 88.195312 C 223.671875 98.609375 219.273438 108.332031 211.40625 115.046875 L 163.734375 115.046875 C 156.097656 108.332031 151.46875 98.609375 151.46875 88.195312 Z M 134.804688 22.222656 L 151.699219 32.175781 C 152.394531 32.640625 153.320312 32.640625 153.78125 32.175781 C 159.335938 28.933594 165.351562 26.390625 171.832031 24.769531 C 172.527344 24.535156 173.222656 24.074219 173.453125 23.148438 L 178.3125 4.167969 L 197.058594 4.167969 L 201.917969 23.148438 C 202.148438 23.84375 202.609375 24.535156 203.535156 24.769531 C 210.015625 26.390625 216.035156 28.703125 221.585938 32.175781 C 222.28125 32.640625 223.207031 32.640625 223.671875 32.175781 L 240.5625 22.222656 L 253.753906 35.417969 L 244.035156 51.851562 C 243.570312 52.546875 243.570312 53.472656 244.035156 54.167969 C 247.507812 59.953125 250.285156 65.972656 251.902344 72.453125 C 252.132812 73.148438 252.597656 73.84375 253.523438 74.074219 L 271.804688 78.933594 L 271.804688 97.683594 L 253.753906 102.316406 C 253.058594 102.546875 252.367188 103.242188 252.132812 103.933594 C 251.210938 107.871094 250.050781 111.804688 248.433594 115.277344 L 217.421875 115.277344 C 224.132812 107.871094 227.835938 98.378906 227.835938 88.425781 C 227.835938 66.203125 209.785156 48.148438 187.570312 48.148438 C 165.351562 48.148438 147.300781 66.203125 147.300781 88.425781 C 147.300781 98.378906 151.003906 108.101562 157.714844 115.277344 L 126.707031 115.277344 C 125.085938 111.574219 123.929688 107.871094 123.003906 103.933594 C 122.773438 103.242188 122.308594 102.546875 121.382812 102.316406 L 103.5625 97.683594 L 103.5625 78.933594 L 121.847656 74.074219 C 122.539062 73.84375 123.234375 73.378906 123.464844 72.453125 C 125.085938 65.972656 127.863281 59.722656 131.335938 54.167969 C 131.796875 53.472656 131.796875 52.546875 131.335938 51.851562 L 121.613281 35.417969 Z M 18.632812 201.621094 C 18.632812 132.871094 59.363281 71.992188 122.539062 45.601562 L 126.9375 53.242188 C 123.695312 58.566406 121.152344 64.351562 119.53125 70.371094 L 101.019531 75.230469 C 100.09375 75.464844 99.398438 76.390625 99.398438 77.316406 L 99.398438 99.304688 C 99.398438 100.230469 100.09375 101.15625 101.019531 101.390625 L 119.300781 106.25 C 119.996094 109.492188 121.152344 112.5 122.308594 115.277344 L 67.695312 115.277344 C 57.742188 115.277344 49.410156 123.378906 49.410156 133.566406 L 49.410156 294.90625 L 46.402344 294.90625 C 28.121094 267.128906 18.632812 234.953125 18.632812 201.621094 Z M 187.570312 370.601562 C 187.570312 370.601562 187.570312 370.832031 187.570312 370.601562 C 145.683594 370.601562 104.953125 355.324219 73.246094 326.15625 L 301.660156 326.15625 C 269.722656 355.554688 228.53125 370.601562 187.570312 370.601562 Z M 347.480469 304.167969 C 347.480469 313.890625 339.609375 321.757812 329.890625 321.757812 L 307.210938 321.757812 C 292.632812 321.757812 60.058594 321.757812 45.246094 321.757812 C 35.527344 321.757812 27.660156 313.890625 27.660156 304.167969 L 27.660156 298.84375 L 140.589844 298.84375 L 149.847656 309.027344 C 150.308594 309.492188 150.773438 309.722656 151.46875 309.722656 L 223.4375 309.722656 C 224.132812 309.722656 224.597656 309.492188 225.058594 309.027344 L 234.316406 298.84375 L 347.480469 298.84375 Z M 347.480469 304.167969 " fill-opacity="1" fill-rule="nonzero"/><path fill="#000000" d="M 214.875 180.554688 C 213.949219 179.859375 212.5625 180.09375 211.867188 181.019531 C 211.171875 181.945312 211.40625 183.332031 212.332031 184.027344 L 243.570312 207.640625 L 212.332031 231.25 C 211.40625 231.945312 211.171875 233.332031 211.867188 234.257812 C 212.332031 234.722656 213.023438 235.183594 213.488281 235.183594 C 213.949219 235.183594 214.414062 234.953125 214.875 234.722656 L 248.199219 209.492188 C 248.664062 209.027344 249.125 208.566406 249.125 207.871094 C 249.125 207.175781 248.894531 206.480469 248.199219 206.25 Z M 214.875 180.554688 " fill-opacity="1" fill-rule="nonzero"/><path fill="#000000" d="M 163.269531 181.019531 C 162.574219 180.09375 161.1875 179.859375 160.261719 180.554688 L 126.9375 205.785156 C 126.472656 206.25 126.011719 206.714844 126.011719 207.40625 C 126.011719 208.101562 126.242188 208.796875 126.9375 209.027344 L 160.261719 234.257812 C 160.722656 234.492188 161.1875 234.722656 161.648438 234.722656 C 162.34375 234.722656 163.039062 234.492188 163.269531 233.796875 C 163.964844 232.871094 163.734375 231.480469 162.808594 230.785156 L 131.796875 207.640625 L 163.039062 184.027344 C 163.964844 183.332031 163.964844 181.945312 163.269531 181.019531 Z M 163.269531 181.019531 " fill-opacity="1" fill-rule="nonzero"/><path fill="#000000" d="M 208.398438 157.871094 C 207.238281 157.40625 206.082031 157.871094 205.621094 159.027344 L 165.585938 254.398438 C 165.121094 255.554688 165.585938 256.714844 166.742188 257.175781 C 166.972656 257.175781 167.203125 257.40625 167.667969 257.40625 C 168.59375 257.40625 169.285156 256.945312 169.75 256.019531 L 209.554688 160.648438 C 210.015625 159.492188 209.320312 158.332031 208.398438 157.871094 Z M 208.398438 157.871094 " fill-opacity="1" fill-rule="nonzero"/></svg>