<svg xmlns="http://www.w3.org/2000/svg" xmlns:xlink="http://www.w3.org/1999/xlink" width="500" zoomAndPan="magnify" viewBox="0 0 375 374.999991" height="500" preserveAspectRatio="xMidYMid meet" version="1.0"><defs><clipPath id="47385f671c"><path d="M 44.0625 301 L 331 301 L 331 375 L 44.0625 375 Z M 44.0625 301 " clip-rule="nonzero"/></clipPath></defs><path fill="#ff5757" d="M 187.5 172.777344 C 151.5625 172.777344 122.433594 143.644531 122.433594 107.707031 C 122.433594 71.777344 151.5625 42.644531 187.5 42.644531 C 223.4375 42.644531 252.566406 71.777344 252.566406 107.707031 C 252.566406 143.644531 223.4375 172.777344 187.5 172.777344 Z M 187.5 -0.0546875 C 123.417969 -0.0546875 71.46875 51.894531 71.46875 115.976562 C 71.46875 180.058594 187.5 337.488281 187.5 337.488281 C 187.5 337.488281 303.53125 180.058594 303.53125 115.976562 C 303.53125 51.894531 251.582031 -0.0546875 187.5 -0.0546875 " fill-opacity="1" fill-rule="nonzero"/><g clip-path="url(#47385f671c)"><path fill="#ff5757" d="M 285.9375 309.027344 C 269.90625 305.339844 250.691406 302.660156 229.753906 301.125 C 227.019531 305.21875 224.386719 309.113281 221.886719 312.773438 C 244.914062 314.152344 266 316.90625 283.214844 320.867188 C 312.332031 327.570312 318.707031 334.992188 318.707031 337.28125 C 318.707031 339.578125 312.332031 347 283.214844 353.699219 C 257.71875 359.5625 223.726562 362.792969 187.5 362.792969 C 151.273438 362.792969 117.28125 359.5625 91.785156 353.699219 C 62.667969 347 56.292969 339.578125 56.292969 337.28125 C 56.292969 334.992188 62.667969 327.570312 91.785156 320.867188 C 109.144531 316.875 130.441406 314.101562 153.695312 312.738281 C 151.195312 309.078125 148.5625 305.179688 145.824219 301.085938 C 124.660156 302.613281 105.246094 305.304688 89.0625 309.027344 C 59.257812 315.886719 44.144531 325.394531 44.144531 337.28125 C 44.144531 349.171875 59.257812 358.679688 89.0625 365.539062 C 115.425781 371.605469 150.386719 374.945312 187.5 374.945312 C 224.613281 374.945312 259.574219 371.605469 285.9375 365.539062 C 315.742188 358.679688 330.855469 349.171875 330.855469 337.28125 C 330.855469 325.394531 315.742188 315.886719 285.9375 309.027344 " fill-opacity="1" fill-rule="nonzero"/></g></svg>