<svg xmlns="http://www.w3.org/2000/svg" xmlns:xlink="http://www.w3.org/1999/xlink" width="500" zoomAndPan="magnify" viewBox="0 0 375 374.999991" height="500" preserveAspectRatio="xMidYMid meet" version="1.0"><defs><clipPath id="93706b93c3"><path d="M 10.078125 0 L 364.828125 0 L 364.828125 375 L 10.078125 375 Z M 10.078125 0 " clip-rule="nonzero"/></clipPath></defs><g clip-path="url(#93706b93c3)"><path fill="#000000" d="M 233.371094 49.53125 C 306.273438 52.019531 364.605469 111.914062 364.605469 185.441406 C 364.605469 258.96875 306.273438 318.863281 233.371094 321.351562 L 233.371094 336 C 233.371094 357.539062 216.414062 375.003906 195.492188 375.003906 L 48.183594 375.003906 C 27.265625 375.003906 10.304688 357.539062 10.304688 336 L 10.304688 39.003906 C 10.304688 17.464844 27.265625 0.00390625 48.183594 0.00390625 L 195.492188 0.00390625 C 216.414062 0.00390625 233.371094 17.464844 233.371094 39.003906 Z M 123.941406 353.335938 C 137.890625 353.335938 149.195312 341.691406 149.195312 327.335938 C 149.195312 312.972656 137.890625 301.332031 123.941406 301.332031 C 109.996094 301.332031 98.6875 312.972656 98.6875 327.335938 C 98.6875 341.691406 109.996094 353.335938 123.941406 353.335938 Z M 228.652344 309.066406 C 296.914062 309.066406 352.246094 253.71875 352.246094 185.441406 C 352.246094 117.164062 296.914062 61.816406 228.652344 61.816406 C 160.394531 61.816406 105.058594 117.164062 105.058594 185.441406 C 105.058594 253.71875 160.394531 309.066406 228.652344 309.066406 Z M 92.140625 36.914062 C 88.742188 36.914062 85.988281 39.667969 85.988281 43.066406 C 85.988281 46.464844 88.742188 49.21875 92.140625 49.21875 L 151.539062 49.21875 C 154.933594 49.21875 157.6875 46.464844 157.6875 43.066406 C 157.6875 39.667969 154.933594 36.914062 151.539062 36.914062 Z M 192.28125 140.113281 L 154.628906 187.167969 L 192.28125 236.820312 L 167.429688 236.820312 L 129.777344 187.425781 L 167.429688 140.113281 Z M 255.660156 140.113281 L 226.796875 236.820312 L 205.710938 236.820312 L 234.578125 140.113281 Z M 266.960938 236.820312 L 304.609375 189.765625 L 266.960938 140.113281 L 291.808594 140.113281 L 329.460938 189.507812 L 291.808594 236.820312 Z M 266.960938 236.820312 " fill-opacity="1" fill-rule="nonzero"/></g></svg>