<svg xmlns="http://www.w3.org/2000/svg" xmlns:xlink="http://www.w3.org/1999/xlink" width="500" zoomAndPan="magnify" viewBox="0 0 375 374.999991" height="500" preserveAspectRatio="xMidYMid meet" version="1.0"><defs><clipPath id="94c220b57e"><path d="M 20.859375 1 L 271 1 L 271 374 L 20.859375 374 Z M 20.859375 1 " clip-rule="nonzero"/></clipPath><clipPath id="4c1d831e7a"><path d="M 160 73 L 353.859375 73 L 353.859375 268 L 160 268 Z M 160 73 " clip-rule="nonzero"/></clipPath></defs><path fill="#000000" d="M 252.273438 199.789062 C 246.71875 199.789062 242.1875 204.320312 242.1875 209.875 C 242.1875 215.449219 246.71875 219.960938 252.273438 219.960938 C 257.847656 219.960938 262.359375 215.449219 262.359375 209.875 C 262.359375 204.320312 257.847656 199.789062 252.273438 199.789062 " fill-opacity="1" fill-rule="nonzero"/><path fill="#000000" d="M 271.921875 124.875 C 264.351562 121.074219 254.914062 120.191406 243.996094 122.207031 C 238.617188 123.183594 233.132812 124.851562 227.707031 127.136719 L 233.097656 140.015625 C 237.617188 138.113281 242.117188 136.78125 246.523438 135.910156 C 254.417969 134.496094 260.851562 134.9375 265.625 137.394531 C 269.71875 139.449219 272.664062 143.839844 272.78125 148.140625 C 272.871094 153.277344 270.4375 158.855469 266.402344 162.714844 C 265.1875 163.875 263.910156 164.941406 262.601562 166.042969 L 261.234375 167.144531 C 259.539062 168.535156 257.789062 169.984375 256.132812 171.5 C 253.429688 173.996094 251.449219 176.335938 249.871094 178.769531 C 247.4375 182.539062 246.164062 186.363281 245.976562 190.015625 L 260.050781 190.015625 C 260.203125 188.949219 260.757812 187.640625 261.617188 186.28125 C 262.542969 184.855469 263.785156 183.429688 265.59375 181.773438 C 267.050781 180.464844 268.558594 179.1875 270.078125 177.96875 L 271.503906 176.8125 C 273.046875 175.535156 274.621094 174.203125 276.070312 172.8125 C 282.921875 166.25 286.910156 156.871094 286.703125 147.851562 C 286.492188 138.324219 280.699219 129.328125 271.921875 124.875 " fill-opacity="1" fill-rule="nonzero"/><g clip-path="url(#94c220b57e)"><path fill="#000000" d="M 157.359375 357.160156 C 154 360.523438 150.058594 362.179688 145.453125 362.179688 L 145.421875 362.179688 C 140.828125 362.179688 136.839844 360.523438 133.492188 357.160156 C 130.140625 353.8125 128.472656 349.835938 128.472656 345.234375 C 128.472656 340.640625 130.140625 336.6875 133.492188 333.339844 C 136.839844 329.988281 140.851562 328.296875 145.421875 328.296875 L 145.453125 328.296875 C 150.023438 328.296875 154 329.988281 157.359375 333.339844 C 160.710938 336.6875 162.402344 340.640625 162.402344 345.234375 C 162.402344 349.835938 160.710938 353.8125 157.359375 357.160156 Z M 244.574219 278.457031 L 244.574219 297.667969 C 244.574219 302.175781 242.882812 306.269531 239.625 309.503906 C 236.390625 312.773438 232.296875 314.488281 227.8125 314.488281 L 63.0625 314.488281 C 58.554688 314.488281 54.484375 312.773438 51.261719 309.503906 C 47.992188 306.269531 46.265625 302.175781 46.265625 297.667969 L 46.265625 43.445312 C 46.265625 38.9375 47.992188 34.808594 51.261719 31.574219 C 54.484375 28.363281 58.554688 26.648438 63.0625 26.648438 L 227.8125 26.648438 C 232.296875 26.648438 236.390625 28.363281 239.625 31.574219 C 242.882812 34.808594 244.574219 38.9375 244.574219 43.445312 L 244.574219 62.644531 C 248.699219 62.144531 252.921875 61.902344 257.1875 61.902344 C 261.582031 61.902344 265.917969 62.167969 270.160156 62.679688 L 270.160156 43.445312 C 270.160156 31.785156 266.007812 21.816406 257.71875 13.527344 C 249.410156 5.214844 239.449219 1.0625 227.8125 1.0625 L 63.0625 1.0625 C 51.402344 1.0625 41.46875 5.214844 33.15625 13.527344 C 24.878906 21.816406 20.714844 31.785156 20.714844 43.445312 L 20.714844 331.554688 C 20.714844 343.214844 24.878906 353.195312 33.15625 361.496094 C 41.46875 369.808594 51.402344 373.9375 63.0625 373.9375 L 227.8125 373.9375 C 239.449219 373.9375 249.410156 369.808594 257.71875 361.496094 C 266.007812 353.195312 270.160156 343.214844 270.160156 331.554688 L 270.160156 278.433594 C 265.917969 278.933594 261.582031 279.199219 257.1875 279.199219 C 252.945312 279.199219 248.757812 278.96875 244.574219 278.457031 " fill-opacity="1" fill-rule="nonzero"/></g><g clip-path="url(#4c1d831e7a)"><path fill="#000000" d="M 257.1875 245.613281 C 245.582031 245.613281 234.324219 242.925781 223.730469 237.628906 L 210.710938 231.125 L 182.414062 235.460938 L 182.296875 211.785156 C 182.203125 193.46875 182.113281 176.859375 182.113281 170.574219 C 182.113281 129.175781 215.789062 95.5 257.1875 95.5 C 298.585938 95.5 332.261719 129.175781 332.261719 170.574219 C 332.261719 211.949219 298.585938 245.613281 257.1875 245.613281 Z M 257.1875 73.773438 C 203.835938 73.773438 160.421875 117.199219 160.421875 170.574219 C 160.421875 178.65625 160.550781 203.878906 160.664062 227.761719 L 160.792969 260.964844 L 206.957031 253.53125 L 214.027344 257.058594 C 227.648438 263.875 242.175781 267.339844 257.1875 267.339844 C 310.5625 267.339844 353.988281 223.9375 353.988281 170.574219 C 353.988281 117.199219 310.5625 73.773438 257.1875 73.773438 " fill-opacity="1" fill-rule="nonzero"/></g></svg>